<svg viewBox="0 0 1281 400" xmlns="http://www.w3.org/2000/svg"><g><g><g><g><g><line x1="53.1875" y1="377" x2="48.1875" y2="377" style="visibility: inherit;" fill="rgb(0, 0, 0)" stroke="rgb(204, 204, 204)" stroke-width="1px"></line><line x1="53.1875" y1="339.3" x2="48.1875" y2="339.3" style="visibility: inherit;" fill="rgb(0, 0, 0)" stroke="rgb(204, 204, 204)" stroke-width="1px"></line><line x1="53.1875" y1="301.6" x2="48.1875" y2="301.6" style="visibility: inherit;" fill="rgb(0, 0, 0)" stroke="rgb(204, 204, 204)" stroke-width="1px"></line><line x1="53.1875" y1="263.9" x2="48.1875" y2="263.9" style="visibility: inherit;" fill="rgb(0, 0, 0)" stroke="rgb(204, 204, 204)" stroke-width="1px"></line><line x1="53.1875" y1="226.2" x2="48.1875" y2="226.2" style="visibility: inherit;" fill="rgb(0, 0, 0)" stroke="rgb(204, 204, 204)" stroke-width="1px"></line><line x1="53.1875" y1="188.5" x2="48.1875" y2="188.5" style="visibility: inherit;" fill="rgb(0, 0, 0)" stroke="rgb(204, 204, 204)" stroke-width="1px"></line><line x1="53.1875" y1="150.8" x2="48.1875" y2="150.8" style="visibility: inherit;" fill="rgb(0, 0, 0)" stroke="rgb(204, 204, 204)" stroke-width="1px"></line><line x1="53.1875" y1="113.10000000000002" x2="48.1875" y2="113.10000000000002" style="visibility: inherit;" fill="rgb(0, 0, 0)" stroke="rgb(204, 204, 204)" stroke-width="1px"></line><line x1="53.1875" y1="75.39999999999998" x2="48.1875" y2="75.39999999999998" style="visibility: inherit;" fill="rgb(0, 0, 0)" stroke="rgb(204, 204, 204)" stroke-width="1px"></line><line x1="53.1875" y1="37.69999999999999" x2="48.1875" y2="37.69999999999999" style="visibility: inherit;" fill="rgb(0, 0, 0)" stroke="rgb(204, 204, 204)" stroke-width="1px"></line><line x1="53.1875" y1="0" x2="48.1875" y2="0" style="visibility: inherit;" fill="rgb(0, 0, 0)" stroke="rgb(204, 204, 204)" stroke-width="1px"></line></g><g transform="translate(43.1875, 0)"><text x="0" y="377" dx="0em" dy="0.3em" style="text-anchor: end; visibility: hidden; font-family: &quot;Helvetica Neue&quot;, sans-serif; font-size: 12px; font-weight: 200;" fill="rgb(50, 49, 63)" stroke="none" stroke-width="1px">95</text><text x="0" y="339.3" dx="0em" dy="0.3em" style="text-anchor: end; visibility: inherit; font-family: &quot;Helvetica Neue&quot;, sans-serif; font-size: 12px; font-weight: 200;" fill="rgb(50, 49, 63)" stroke="none" stroke-width="1px">95.5</text><text x="0" y="301.6" dx="0em" dy="0.3em" style="text-anchor: end; visibility: inherit; font-family: &quot;Helvetica Neue&quot;, sans-serif; font-size: 12px; font-weight: 200;" fill="rgb(50, 49, 63)" stroke="none" stroke-width="1px">96</text><text x="0" y="263.9" dx="0em" dy="0.3em" style="text-anchor: end; visibility: inherit; font-family: &quot;Helvetica Neue&quot;, sans-serif; font-size: 12px; font-weight: 200;" fill="rgb(50, 49, 63)" stroke="none" stroke-width="1px">96.5</text><text x="0" y="226.2" dx="0em" dy="0.3em" style="text-anchor: end; visibility: inherit; font-family: &quot;Helvetica Neue&quot;, sans-serif; font-size: 12px; font-weight: 200;" fill="rgb(50, 49, 63)" stroke="none" stroke-width="1px">97</text><text x="0" y="188.5" dx="0em" dy="0.3em" style="text-anchor: end; visibility: inherit; font-family: &quot;Helvetica Neue&quot;, sans-serif; font-size: 12px; font-weight: 200;" fill="rgb(50, 49, 63)" stroke="none" stroke-width="1px">97.5</text><text x="0" y="150.8" dx="0em" dy="0.3em" style="text-anchor: end; visibility: inherit; font-family: &quot;Helvetica Neue&quot;, sans-serif; font-size: 12px; font-weight: 200;" fill="rgb(50, 49, 63)" stroke="none" stroke-width="1px">98</text><text x="0" y="113.10000000000002" dx="0em" dy="0.3em" style="text-anchor: end; visibility: inherit; font-family: &quot;Helvetica Neue&quot;, sans-serif; font-size: 12px; font-weight: 200;" fill="rgb(50, 49, 63)" stroke="none" stroke-width="1px">98.5</text><text x="0" y="75.39999999999998" dx="0em" dy="0.3em" style="text-anchor: end; visibility: inherit; font-family: &quot;Helvetica Neue&quot;, sans-serif; font-size: 12px; font-weight: 200;" fill="rgb(50, 49, 63)" stroke="none" stroke-width="1px">99</text><text x="0" y="37.69999999999999" dx="0em" dy="0.3em" style="text-anchor: end; visibility: inherit; font-family: &quot;Helvetica Neue&quot;, sans-serif; font-size: 12px; font-weight: 200;" fill="rgb(50, 49, 63)" stroke="none" stroke-width="1px">99.5</text><text x="0" y="0" dx="0em" dy="0.3em" style="text-anchor: end; visibility: hidden; font-family: &quot;Helvetica Neue&quot;, sans-serif; font-size: 12px; font-weight: 200;" fill="rgb(50, 49, 63)" stroke="none" stroke-width="1px">100</text></g><line x1="53.1875" y1="0" x2="53.1875" y2="377" fill="rgb(0, 0, 0)" stroke="rgb(204, 204, 204)" stroke-width="1px"></line></g></g><g transform="translate(53, 0)" clip-path="url(#clip_0)"><clipPath id="clip_0"><rect width="1227" height="377"></rect></clipPath><g><g><g><line x1="0" y1="0" x2="0" y2="377" fill="rgb(0, 0, 0)" stroke="rgb(60, 60, 60)" stroke-width="1px" opacity="0.25"></line><line x1="102.31770833333333" y1="0" x2="102.31770833333333" y2="377" fill="rgb(0, 0, 0)" stroke="rgb(60, 60, 60)" stroke-width="1px" opacity="0.25"></line><line x1="204.63541666666666" y1="0" x2="204.63541666666666" y2="377" fill="rgb(0, 0, 0)" stroke="rgb(60, 60, 60)" stroke-width="1px" opacity="0.25"></line><line x1="306.953125" y1="0" x2="306.953125" y2="377" fill="rgb(0, 0, 0)" stroke="rgb(60, 60, 60)" stroke-width="1px" opacity="0.25"></line><line x1="409.2708333333333" y1="0" x2="409.2708333333333" y2="377" fill="rgb(0, 0, 0)" stroke="rgb(60, 60, 60)" stroke-width="1px" opacity="0.25"></line><line x1="511.5885416666667" y1="0" x2="511.5885416666667" y2="377" fill="rgb(0, 0, 0)" stroke="rgb(60, 60, 60)" stroke-width="1px" opacity="0.25"></line><line x1="613.90625" y1="0" x2="613.90625" y2="377" fill="rgb(0, 0, 0)" stroke="rgb(60, 60, 60)" stroke-width="1px" opacity="0.25"></line><line x1="716.2239583333334" y1="0" x2="716.2239583333334" y2="377" fill="rgb(0, 0, 0)" stroke="rgb(60, 60, 60)" stroke-width="1px" opacity="0.25"></line><line x1="818.5416666666666" y1="0" x2="818.5416666666666" y2="377" fill="rgb(0, 0, 0)" stroke="rgb(60, 60, 60)" stroke-width="1px" opacity="0.25"></line><line x1="920.859375" y1="0" x2="920.859375" y2="377" fill="rgb(0, 0, 0)" stroke="rgb(60, 60, 60)" stroke-width="1px" opacity="0.25"></line><line x1="1023.1770833333334" y1="0" x2="1023.1770833333334" y2="377" fill="rgb(0, 0, 0)" stroke="rgb(60, 60, 60)" stroke-width="1px" opacity="0.25"></line><line x1="1125.4947916666665" y1="0" x2="1125.4947916666665" y2="377" fill="rgb(0, 0, 0)" stroke="rgb(60, 60, 60)" stroke-width="1px" opacity="0.25"></line><line x1="1227.8125" y1="0" x2="1227.8125" y2="377" fill="rgb(0, 0, 0)" stroke="rgb(60, 60, 60)" stroke-width="1px" opacity="0.25"></line></g><g><line x1="0" y1="377" x2="1227.8125" y2="377" fill="rgb(0, 0, 0)" stroke="rgb(60, 60, 60)" stroke-width="1px" opacity="0.25"></line><line x1="0" y1="339.3" x2="1227.8125" y2="339.3" fill="rgb(0, 0, 0)" stroke="rgb(60, 60, 60)" stroke-width="1px" opacity="0.25"></line><line x1="0" y1="301.6" x2="1227.8125" y2="301.6" fill="rgb(0, 0, 0)" stroke="rgb(60, 60, 60)" stroke-width="1px" opacity="0.25"></line><line x1="0" y1="263.9" x2="1227.8125" y2="263.9" fill="rgb(0, 0, 0)" stroke="rgb(60, 60, 60)" stroke-width="1px" opacity="0.25"></line><line x1="0" y1="226.2" x2="1227.8125" y2="226.2" fill="rgb(0, 0, 0)" stroke="rgb(60, 60, 60)" stroke-width="1px" opacity="0.25"></line><line x1="0" y1="188.5" x2="1227.8125" y2="188.5" fill="rgb(0, 0, 0)" stroke="rgb(60, 60, 60)" stroke-width="1px" opacity="0.25"></line><line x1="0" y1="150.8" x2="1227.8125" y2="150.8" fill="rgb(0, 0, 0)" stroke="rgb(60, 60, 60)" stroke-width="1px" opacity="0.25"></line><line x1="0" y1="113.10000000000002" x2="1227.8125" y2="113.10000000000002" fill="rgb(0, 0, 0)" stroke="rgb(60, 60, 60)" stroke-width="1px" opacity="0.25"></line><line x1="0" y1="75.39999999999998" x2="1227.8125" y2="75.39999999999998" fill="rgb(0, 0, 0)" stroke="rgb(60, 60, 60)" stroke-width="1px" opacity="0.25"></line><line x1="0" y1="37.69999999999999" x2="1227.8125" y2="37.69999999999999" fill="rgb(0, 0, 0)" stroke="rgb(60, 60, 60)" stroke-width="1px" opacity="0.25"></line><line x1="0" y1="0" x2="1227.8125" y2="0" fill="rgb(0, 0, 0)" stroke="rgb(60, 60, 60)" stroke-width="1px" opacity="0.25"></line></g></g></g><g><g><line x1="0" y1="7540" x2="1227.8125" y2="7540" fill="rgb(0, 0, 0)" stroke="rgb(153, 153, 153)" stroke-width="1.5px"></line></g></g><g><g><line x1="102.31770833333333" y1="0" x2="102.31770833333333" y2="377" fill="rgb(0, 0, 0)" stroke="rgb(153, 153, 153)" stroke-width="1.5px"></line></g></g><g><g><g><g><g><path stroke="rgb(255, 112, 67)" stroke-width="2px" d="M136.08255208333335,400.2202495870409L137.10572916666666,357.9445295611351L138.12890625,360.85422270008667L140.17526041666667,343.75001611406043L143.24479166666666,338.200006260208L144.26796875,320.7324973201064L146.31432291666667,380.93951170226467L147.3375,355.8012036869045L148.36067708333334,336.00572063668704L149.38385416666668,338.26593248994106L150.40703125,292.4970581826331L151.43020833333333,307.44823516660233L153.4765625,292.8564409494553L154.4997395833333,302.9513646321469L157.56927083333332,304.29581878427985L158.59244791666669,295.6774912513681L159.615625,304.64399476280687L160.63880208333333,286.46139684310083L161.66197916666664,275.55183810061055L164.73151041666665,273.7186028598368L165.75468750000002,286.75616171816125L166.77786458333333,271.01619702926143L167.80104166666666,256.859718216675L168.82421875,271.92833093056885L169.84739583333334,280.96949855854444L170.87057291666665,324.0941991357081L171.89375,274.569019481023L172.91692708333335,254.27891168851588L173.94010416666666,284.5173470131989L175.98645833333333,312.0854082079669L177.00963541666667,286.21374492475354L178.03281249999998,265.9782469548384L179.05598958333334,249.12444817289685L181.10234375,243.7246689037366L182.12552083333335,235.77230134224132L183.14869791666666,263.988380805348L184.171875,262.0680284832082L186.21822916666667,246.77831708992554L187.24140624999998,237.60449025395553L189.28776041666669,241.52519415237376L190.3109375,253.30261649142489L191.33411458333333,279.2190698948556L192.35729166666667,257.06894193691335L193.38046875,253.2038651621491L194.40364583333331,250.8848190972901L196.45000000000002,211.79339145837406L197.47317708333333,221.326034875024L199.31489583333334,217.62062092501313L200.33807291666665,210.6848725550081L202.38442708333332,215.94842353300484L205.45395833333333,190.83155411980354L206.47713541666667,166.336432471883L207.5003125,198.76435948313002L208.52348958333334,208.796115689878L209.54666666666665,162.97766941392658L210.56984375000002,173.1866016483568L211.59302083333333,193.44946098901494L212.61619791666666,191.4696765934094L215.68572916666668,209.13180595604607L216.70890624999998,219.72908357362763L219.7784375,211.94995014417702L222.84796875,179.00747008650643L223.87114583333332,211.07948205190428L224.89432291666668,206.7601892311428L225.9175,199.45611353868523L226.94067708333333,190.361168123212L227.96385416666666,199.04170087392762L230.0102083333333,171.26252052435703L231.03338541666668,211.14501231461463L232.0565625,169.09950738876876L233.07973958333332,186.28470443326083L234.1029166666667,177.74582265995738L236.14927083333333,172.62249359597484L237.17244791666664,188.39849615758493L240.24197916666665,202.57659769455137L241.26515625000002,182.80845861673123L243.31151041666666,189.79757517003833L244.3346875,156.29104510202257L246.38104166666665,178.59962706121354L248.42739583333335,168.42227623672812L249.45057291666666,171.74086574203687L250.47375,140.74451944522212L251.49692708333333,169.27171166713327L252.52010416666667,195.81302700027996L253.54328124999998,188.1753162001684L255.58963541666665,178.88018972010192L256.61281249999996,159.16561383206158L257.63598958333336,185.03686829923714L258.6591666666667,186.42212097954229L260.70552083333337,201.39077258772602L261.72869791666665,167.9594635526356L262.751875,209.16317813158136L264.79822916666666,200.89790687894924L265.82140625,158.23874412736996L266.84458333333333,160.91824647642156L268.8909375,200.22594788585295L269.91411458333334,186.110568731512L271.96046875,187.06634123890717L272.9836458333333,187.6398047433443L275.03000000000003,197.40888284600638L276.0531770833333,212.6953297076034L277.07635416666665,193.59219782456225L279.1227083333333,167.99281869473757L280.14588541666666,190.33319121684255L281.1690625,217.87491473010573L283.21541666666667,177.8499488380641L284.23859375,163.25996930283887L285.26177083333334,154.50598158170416L286.2849479166667,163.3910889490221L288.33130208333336,173.43465336941367L289.35447916666664,151.18579202164906L290.37765625,156.68647521298945L291.40083333333337,169.41188512779388L292.42401041666665,153.48463107667612L293.4471875,134.50327864600587L295.28890624999997,165.52696718760353L296.31208333333336,155.86618031256188L297.33526041666664,135.9322081875367L299.3816145833334,128.6843249125229L300.40479166666665,133.76059494751394L303.47432291666667,155.656356968509L307.56703125,149.94381418110495L308.59020833333335,137.09128850866256L310.6365625,124.66727310519752L311.65973958333336,164.33786386311937L312.68291666666664,136.30271831787246L314.7292708333334,128.90663099072307L315.75244791666665,105.61897859443405L316.775625,101.0713871566602L317.7988020833334,103.05533229399572L318.82197916666667,132.52069937639826L321.8915104166667,121.92491962583853L322.9146875,129.70495177550396L323.9378645833333,148.51047106530197L324.9610416666667,164.5062826391814L328.03057291666664,159.96626958350862L329.05375000000004,166.66726175010518L330.0769270833333,165.9753570500633L331.10010416666665,156.13521423003866L332.12328125000005,145.51862853802362L333.1464583333333,129.72367712281437L335.1928125,120.24670627368863L336.21598958333334,123.98552376421299L337.2391666666667,145.07881425852818L339.2855208333333,134.1722885551165L340.3086979166667,122.91587313306991L341.331875,135.01202387984216L342.3550520833333,142.26971432790572L343.3782291666667,160.76182859674367L344.40140625000004,138.86959715804662L345.4245833333333,149.29675829482798L347.4709375,127.27805497689701L348.4941145833333,161.1918329861382L350.54046874999995,129.70259979168316L351.56364583333334,120.2340598750103L352.5868229166667,119.26543592500661L354.63317708333335,113.97176155500398L355.6563541666667,134.3580569330026L356.67953124999997,137.1648341598022L357.7027083333333,129.42390049588153L358.7258854166667,124.77934029752959L359.7490625,117.28010417851817L360.7722395833333,126.91806250711045L361.7954166666667,142.12583750426583L362.81859375,122.9755025025591L363.8417708333333,111.48530150153567L365.888125,142.29118090092183L368.95765625,127.78720854055288L369.98083333333335,114.37232512433172L371.00401041666663,101.61089507459945L372.02718749999997,103.37903704476054L374.07354166666664,128.0024222268563L376.1198958333334,138.06395333611465L378.16625,115.82587200166881L380.21260416666667,111.9080232010017L382.25895833333334,147.25731392060146L383.2821354166666,144.90438835236108L384.3053125,143.49263301141684L385.32848958333335,147.3580798068497L386.35166666666663,140.25234788411004L388.39802083333336,126.56390873046644L389.42119791666664,113.63834523828052L391.2629166666666,124.73300714296852L392.28609375,136.10230428578132L393.30927083333336,133.49888257146966L394.33244791666664,131.936829542882L395.35562500000003,126.28709772572901L396.37880208333337,122.89725863543782L401.4946875,111.4383551812627L403.5410416666667,95.1380131087576L404.56421875,85.35780786525544L406.6105729166667,88.91468471915346L407.63375,91.04881083149212L408.6569270833333,97.0417864988957L409.6801041666667,124.20007189933764L410.70328125000003,135.78254313960298L411.7264583333333,109.74452588376136L412.74963541666665,112.97171553025703L413.77281250000004,114.90802931815489L414.7959895833333,120.78231759089334L415.81916666666666,110.16939055453645L416.84234375000005,99.08913433272204L419.911875,106.5784805996339L420.93505208333335,115.7845883597812L422.98140624999996,144.87075301586827L426.0509375,110.48495180952182L427.0741145833333,94.56597108571395L429.12046875,99.15208265142837L430.1436458333333,134.891249590857L431.16682291666666,142.19724975451376L432.19,132.44334985270785L433.21317708333333,136.0160099116249L434.2363541666667,152.29710594697497L435.25953124999995,129.07826356818498L436.28270833333335,105.7219581409114L437.3058854166667,119.98317488454688L438.32906249999996,128.53990493072854L439.35223958333336,124.24894295843688L440.3754166666667,126.3868657750617L441.39859375,108.81961946503662L443.4449479166667,98.27927167902237L444.468125,110.80506300741365L446.5144791666667,118.32053780444795L448.56083333333333,89.84232268266834L450.6071875,82.18039360960125L452.6535416666666,77.58323616576092L453.67671875,70.11244169945655L454.69989583333336,79.76746501967415L455.72307291666664,71.42297901180513L456.74625,108.82878740708395L457.76942708333337,107.70977244425058L458.79260416666665,97.61336346655054L459.81578125,96.2680180799299L460.8389583333334,86.03581084795837L461.86213541666666,94.033986508775L462.8853125,108.25789190526461L463.90848958333333,112.07973514315876L464.9316666666667,86.0978410858948L465.95484375,117.63370465153645L466.97802083333335,108.2802227909221L468.0011979166666,107.38063367455305L470.04755208333336,111.55338020473204L471.07072916666664,95.20702812283946L472.09390625000003,85.39921687370406L473.11708333333337,84.22703012422244L474.14026041666665,83.52371807453369L475.1634375,78.38923084471998L476.1866145833333,84.73353850683156L477.20979166666666,93.25262310409937L478.23296875,112.50157386245962L479.2561458333333,105.20094431747577L480.2793229166667,119.67056659048546L481.3025,109.5023399542913L482.3256770833333,93.97640397257521L484.37203125,94.08584238354598L485.3952083333333,98.86400543012718L488.2601041666667,78.16840325807675L490.3064583333333,79.888541954846L491.3296354166667,80.92062517290765L492.3528125,72.11487510374457L493.3759895833333,71.54392506224718L494.3991666666667,85.33885503734848L496.4455208333333,65.34081302240975L497.46869791666666,76.90448781344628L499.51505208333333,83.84269268806776L500.53822916666667,83.29311561284152L501.56140624999995,64.11336936770493L502.58458333333334,66.74302162062338L503.6077604166667,73.03331297237361L505.65411458333335,81.51998778342437L506.6772916666667,91.32449267005484L507.70046874999997,92.49469560203289L508.7236458333333,107.3343173612206L511.7931770833333,92.67559041673235L513.8395312499999,93.3053542500403L514.8627083333333,103.10821255002458L516.9090625,113.70242753001497L517.9322395833333,134.19645651800874L518.9554166666667,146.49287391080483L521.0017708333334,102.03322434648288L522.0249479166667,98.91993460788996L524.0713020833333,111.18946076473378L526.11765625,109.12617645884069L531.2335416666666,93.75070587530399L532.25671875,89.23792352518257L535.32625,95.95525411511022L536.3494270833334,81.135652469067L537.3726041666666,91.09389148144106L538.39578125,111.20633488886551L539.4189583333333,113.8488009333193L540.4421354166667,101.29678055999113L542.4884895833334,103.19056833599552L544.53484375,113.75184100159692L546.5811979166666,91.81360460095902L548.6275520833334,106.92566276057539L551.6970833333334,101.85539765634564L552.7202604166666,98.813238593807L554.7666145833333,111.12544315628418L555.7897916666667,113.80026589377093L556.81296875,101.26765953626341L557.8361458333333,117.31059572175889L558.8593229166667,108.0863574330549L560.9056770833333,102.55181445983317L561.9288541666666,108.6560886758997L562.95203125,117.03115320554002L563.9752083333333,117.34369192332423L564.9983854166667,117.53121515399454L566.0215625000001,94.08122909239671L567.0447395833334,112.99873745543891L568.0679166666666,105.49924247326373L569.09109375,91.57454548395827L571.1374479166667,78.5072272903758L572.160625,65.9543363742257L574.2069791666667,77.27260182453523L575.23015625,69.92606109472155L576.2533333333333,93.79313665683338L577.2765104166667,103.40088199410047L578.2996875,90.31552919646026L579.3228645833333,101.31431751787659L580.3460416666667,98.48859051072594L581.36921875,73.2306543064364L583.2109375,62.78839258386142L584.2341145833333,75.3730355503173L585.2572916666667,78.21132133019057L586.28046875,103.47679279811439L587.3036458333333,104.49857567886903L588.3268229166667,95.68664540732209L589.35,95.11198724439367L590.3731770833333,108.90469234663578L591.3963541666667,98.33031540798169L592.41953125,115.5481892447894L595.4890624999999,121.16641354687428L596.5122395833333,119.82484812812413L600.6049479166667,114.30740887687409L603.6744791666666,87.43444532612443L604.69765625,94.87316719567508L605.7208333333333,99.33640031740589L606.7440104166666,92.58934019044312L607.7671875,97.96610411426542L609.8135416666667,91.76716246855881L610.83671875,88.04779748113532L611.8598958333333,76.39117848868204L614.9294270833334,78.82220709320882L615.9526041666667,70.85582425592571L617.9989583333332,56.650994553554995L622.0916666666667,52.84059673213301L623.11484375,64.69185803928002L624.1380208333333,62.37761482356842L625.1611979166667,70.41406889414105L626.184375,98.79844133648527L627.2075520833333,82.84156480189205L628.2307291666667,77.97993888113564L629.25390625,79.77546332868184L630.2770833333333,90.27777799720951L631.3002604166667,73.01666679832613L633.3466145833333,76.79750007899656L634.3697916666667,83.77850004739832L635.3929687499999,64.404600028439L636.4161458333333,90.48026001706381L637.4393229166667,73.13815601023788L638.4625,81.5828936061423L639.4856770833334,105.49973616368555L642.5552083333333,82.14984169821201L643.5783854166667,86.98990501892808L644.6015625,80.46894301135683L650.740625,76.55636580681454L652.7869791666666,97.7713194840889L653.81015625,110.50029169045314L654.8333333333334,99.28767501427234L655.8565104166667,92.56010500856382L656.8796875,83.81106300513784L657.9028645833334,87.98663780308232L658.9260416666666,71.64198268184936L659.94921875,85.39768960910988L660.9723958333333,84.22611376546632L661.9955729166667,88.23566825928043L663.0187500000001,76.50390095556912L664.0419270833333,74.1773405733415L665.0651041666666,129.33140434400534L666.08828125,96.44884260640362L667.1114583333333,86.14430556384218L668.1346354166667,84.67408333830548L669.1578125000001,83.79195000298398L671.2041666666667,116.25017000179037L672.2273437499999,88.60010200107467L673.2505208333333,81.43506120064524L675.296875,95.98603672038797L677.3432291666667,95.29162203223302L680.2081250000001,76.02497321933981L681.2313020833333,78.6024839316043L682.2544791666667,66.01149035896259L684.3008333333333,96.15689421537735L685.3240104166667,114.24413652922658L686.3471875,110.95898191753662L688.3935416666667,108.98788915052154L689.41671875,84.2427334903129L690.4398958333334,83.53314009418733L691.4630729166668,73.68238405651198L692.4862499999999,67.77193043390736L693.5094270833333,97.2131582603451L694.5326041666666,91.31539495620791L695.55578125,97.20173697372434L697.6021354166667,100.73354218423503L698.6253125,84.00262531054187L699.6484895833333,73.96407518632469L700.6716666666666,77.36594511179482L701.69484375,69.98206706707691L702.7180208333334,56.12674024024659L703.7411979166667,66.66354414414792L704.764375,91.83562648648899L705.7875520833333,73.95137589189335L706.8107291666666,77.35832553513666L707.83390625,74.68999532108222L708.8570833333333,68.37649719264914L709.8802604166667,69.3008983155899L710.9034375,69.85553898935353L712.9497916666667,74.90082339361254L713.9729687500001,73.21549403616712L714.9961458333333,86.34179642170068L717.0424999999999,89.50507785302085L718.0656770833333,110.25304671181271L719.0888541666667,94.42682802708782L720.11203125,80.21859681625227L722.1583854166666,71.6936580897518L723.1815624999999,61.866194853851255L724.2047395833333,65.39471691231142L725.2279166666667,62.7993301473864L726.25109375,94.22959808843143L727.2742708333334,98.95025885305841L728.2974479166666,92.35765531183591L730.3438020833333,78.97709318710156L732.39015625,80.37375591226112L733.4133333333334,90.63675354735648L734.4365104166666,68.51955212841347L737.5060416666666,55.249231277048295L741.59875,84.98703876622938L742.6219270833334,88.69222325973743L743.6451041666667,81.490333955842L744.6682812500001,77.1692003735048L745.6914583333332,69.86402022410243L746.7146354166666,98.46841213446231L747.7378125,87.35604728067824L748.7609895833333,85.4011283684078L751.8305208333333,65.37817702104553L752.8536979166666,76.92690621262818L753.876875,69.71864372757693L754.9000520833333,74.81868623654657L756.9464062500001,77.87871174192838L757.9695833333333,89.1397270451572L758.9927604166667,81.758836227095L761.0391145833333,96.18030173625783L762.0622916666667,85.98318104175496L763.08546875,79.86490862505337L764.1086458333333,80.90644517503267L765.1318229166667,100.38136710501959L766.155,93.21632026301262L767.1781770833334,84.20479215780756L768.2013541666668,111.78537529468542L769.2245312499999,85.92122517681167L770.2477083333333,108.10273510608658L771.2708854166666,107.27414106365217L772.2940625,102.06448463819169L773.3172395833334,75.37619078291567L775.1589583333333,73.50071446974982L776.1821354166666,67.66292868185076L777.2053125,59.44775720911048L780.27484375,73.36865432546671L781.2980208333333,72.29619259527959L783.344375,76.36521555716774L784.3675520833334,64.66912933430149L785.3907291666667,62.36397760058048L786.41390625,65.69338656034785L787.4370833333334,81.82853193620957L788.4602604166666,77.37211916172572L789.4834375,74.69827149703502L790.5066145833334,68.3814628982206L791.5297916666667,64.5913777389328L792.55296875,90.59232664335968L793.5761458333333,73.20539598601664L795.6225000000001,53.3482375916102L796.6456770833333,60.28394255496676L797.6688541666666,73.87036553298094L798.69203125,110.29721931978895L799.7152083333333,94.4533315918734L801.7615625000001,103.79699895512363L802.7847395833334,99.97819937307457L803.8079166666666,88.26191962384496L804.8310937499999,81.23215177430762L805.8542708333333,77.0142910645846L806.8774479166667,60.34607463875119L807.900625,73.90764478325156L808.9238020833334,67.90708686995134L809.9469791666667,59.594252121970385L810.97015625,78.16905127318267L811.9933333333333,79.8889307639098L813.0165104166667,90.3458584583459L814.0396875,82.48251507500754L817.10921875,82.47700904500493L819.1555729166666,77.761205427003L821.2019270833333,65.50672325620224L824.2714583333334,86.42903395372156L825.2946354166667,84.84492037223379L826.3178125000001,83.89445222333984L827.3409895833332,88.03667133400393L828.3641666666666,81.09700280040278L829.38734375,72.22070168024123L830.4105208333333,66.89492100814476L831.4336979166667,58.98695260488728L832.4568750000001,63.66717156293191L833.4800520833332,75.90030293775874L834.5032291666666,50.25268176265479L835.52640625,58.426609057592486L836.5495833333333,72.75596543455549L839.6191145833333,95.49107926073413L840.6422916666667,66.71964755644069L841.66546875,63.59428853386504L843.7118229166667,42.8690731203186L844.7349999999999,39.85894387219162L846.7813541666667,56.90286632331538L847.80453125,71.84171979398968L848.8277083333334,76.09253187639422L849.8508854166668,59.79301912583696L850.8740624999999,54.725811475502155L851.8972395833333,46.972986885300884L854.9667708333334,56.458792131180076L855.9899479166668,52.72527527870761L857.013125,45.77266516722483L861.1058333333334,69.8760991003353L862.1290104166667,79.6256594602018L864.1753645833334,76.05039567612067L865.1985416666666,83.330237405672L866.22171875,82.9856424434036L867.2448958333334,73.35388546604258L868.2680729166667,81.71233127962643L869.29125,82.01489876777606L871.13296875,96.33393926066583L872.1561458333334,95.50036355639907L873.1793229166666,90.28771813383969L874.2025,63.597630880303996L876.2488541666667,75.85857852818265L877.27203125,69.07764711690982L878.2952083333333,79.14658827014586L879.3183854166666,94.61295296208777L880.3415625,80.33027177725307L881.3647395833333,81.18566306635165L882.3879166666667,67.56139783981143L883.4110937500001,68.81183870388685L886.4806249999999,69.5621032223317L887.5038020833333,88.86226193339945L889.55015625,91.01735716004055L890.5733333333334,78.17291429602432L891.5965104166667,70.46624857761418L892.6196874999999,70.55474914656895L893.6428645833333,84.74534948794133L894.6660416666667,64.9847096927648L896.7123958333333,53.12832581565914L897.7355729166666,69.57699548939593L898.75875,65.30869729363798L899.7819270833334,72.17271837618279L900.8051041666666,66.8661310257101L901.82828125,68.39467861542647L902.8514583333333,69.31180716925593L903.8746354166666,60.437084301553966L906.9441666666667,78.67475058093214L907.96734375,66.05485034855889L910.0136979166666,44.34541020913616L911.036875,59.59474612548195L912.0600520833334,64.03184767528938L913.0832291666667,76.11910860517446L914.1064062500001,64.52146516310489L915.1295833333332,57.56287909786357L917.1759375,81.66272745871902L918.1991145833333,72.56013647523162L919.2222916666667,67.0985818851392L920.2454687500001,68.53414913108372L921.2686458333333,64.68298947865043L922.2918229166667,90.64729368718986L923.315,73.23837621231473L924.3381770833333,86.35552572738885L925.3613541666667,94.22581543643372L926.3845312499999,70.67298926185981L927.4077083333333,84.8162935571163L928.4308854166667,74.45227613426937L930.4772395833334,68.23386568056117L932.5235937499999,59.7903194083363L933.5467708333333,68.86169164500262L934.5699479166667,60.167014987002005L935.593125,54.950208992201226L936.6163020833334,70.67012539532118L937.6394791666668,61.252075237192685L939.6858333333333,74.45124514231605L940.7090104166666,96.50824708538983L941.7321875,90.89244825123393L942.7553645833334,87.52296895074056L943.7785416666667,90.21378137044388L944.80171875,68.2657688222659L946.8480729166666,64.52196129335977L948.8944270833334,48.138176776015655L949.9176041666666,38.307906065609586L951.9639583333333,32.409743639365786L952.9871354166667,47.72084618361964L954.0103125,80.47000771017179L957.07984375,71.84450462610329L958.1030208333333,80.80670277566264L959.1261979166667,76.759021665398L960.1493750000001,83.75541299923924L961.1725520833334,78.52824779954375L963.2189062499999,84.81694867972647L964.2420833333333,93.30266920783589L965.2652604166667,84.25660152470175L967.1069791666666,83.54146091482147L968.13015625,92.53737654889312L969.1533333333333,79.0849259293363L970.1765104166667,89.86345555760136L972.2228645833333,101.04307333456103L973.2460416666667,93.61334400073702L975.2923958333333,84.44300640044202L976.3155729166667,74.2283038402648L977.33875,86.94948230415929L978.3619270833333,56.882189382495994L980.40828125,71.82931362949847L981.4314583333334,99.64758817769928L982.4546354166667,83.3510529066196L983.4778125,68.86063174397196L985.5241666666666,55.453879046382724L987.5705208333334,61.5473274278292L989.616875,60.49089645669778L990.6400520833333,69.28203787401907L991.6632291666666,55.70672272441209L992.68640625,75.83653363464725L993.7095833333334,73.77692018078835L997.8022916666666,63.11615210847299L998.82546875,66.1446912650834L999.8486458333333,82.09931475905091L1000.8718229166667,68.1095888554305L1001.895,64.42825331325832L1003.9413541666667,71.64445198795454L1004.96453125,75.9741711927723L1005.9877083333333,78.57200271566381L1007.0108854166667,80.13070162939829L1008.0340624999999,76.35342097763896L1009.0572395833333,78.79955258658424L1010.0804166666667,80.26723155195054L1011.10359375,62.297838931170304L1012.1267708333334,51.51620335870177L1013.1499479166667,45.047222015220655L1015.1963020833333,69.44083320913279L1016.2194791666667,69.93949992547994L1017.24265625,74.95119995528836L1018.2658333333334,44.970719973173686L1019.2890104166668,31.69493198390461L1020.3121874999999,56.716959190343005L1021.3353645833333,71.73017551420577L1023.38171875,76.02560530852327L1024.4048958333333,78.6028631851135L1025.4280729166667,66.0117179110677L1026.4512499999998,67.88203074664148L1027.4744270833332,59.57921844798443L1028.4976041666666,64.02253106879027L1029.52078125,76.11351864127414L1030.5439583333334,78.6556111847649L1031.5671354166666,84.89336671085852L1035.65984375,79.21102002651554L1036.6830208333333,71.08911201590934L1038.729375,61.50346720954582L1039.7525520833333,65.1770803257279L1040.7757291666667,62.66874819543676L1041.79890625,61.16374891726201L1042.8220833333335,69.68574935035787L1043.8452604166666,93.64894961021514L1044.8684375,79.75186976612997L1046.9147916666666,76.12612185967839L1047.93796875,83.37567311580744L1048.9611458333334,73.58790386948408L1049.9843229166665,63.00274232169045L1052.0306770833333,61.36414539301512L1053.0538541666667,50.955987235808664L1054.0770312500001,54.13609234148561L1055.1002083333333,65.46915540489181L1056.1233854166667,86.40649324293526L1057.1465625,98.9688959457618L1059.1929166666666,82.94383756745731L1060.21609375,82.75380254047417L1063.0809895833333,87.35228152428448L1064.1041666666667,85.39886891457024L1065.1273437500001,88.93932134874217L1066.1505208333333,86.35109280924485L1067.1736979166667,84.79815568554648L1068.196875,69.7288934113281L1070.2432291666667,65.39983604679753L1072.2895833333332,43.95240162807892L1075.3591145833334,45.22144097684759L1076.3822916666668,60.12036458610851L1077.40546875,69.05971875166574L1078.4286458333333,50.86083125099947L1080.475,54.078998750599226L1081.4981770833333,56.009899250359126L1082.5213541666667,43.030939550215066L1084.5677083333333,68.23106373012945L1085.5908854166667,69.21363823807809L1086.6140625,55.665682942847695L1087.6372395833334,66.3869097657082L1089.68359375,49.25714585942535L1090.7067708333334,38.97928751565519L1091.7299479166666,61.087572509392714L1092.753125,74.3525435056365L1093.7763020833333,91.73652610338189L1094.7994791666667,111.59191566202873L1095.82265625,81.09264939721766L1096.8458333333333,58.08058963833014L1097.8690104166667,58.41085378299766L1099.9153645833335,63.32151226979903L1100.9385416666667,70.98040736187943L1102.9848958333332,94.42574441712787L1105.03125,75.50544665027712L1106.0544270833334,73.57826799016607L1108.10078125,67.7094607941001L1109.1239583333333,68.90067647646049L1110.1471354166667,69.61540588587712L1111.1703125000001,55.9067435315265L1112.1934895833333,75.9565461189157L1113.2166666666667,69.13642767134962L1116.2861979166667,93.31935660280999L1117.309375,84.266613961686L1118.3325520833334,74.12246837701178L1119.3557291666666,68.03598102620685L1121.4020833333334,45.53408861572433L1122.4252604166668,36.74545316943522L1123.4484375,26.759771901660713L1124.4716145833333,34.90586314099687L1125.4947916666665,63.356017884598316L1128.5643229166667,66.28861073075899L1130.6106770833333,68.04816643845606L1131.6338541666667,69.10389986307405L1133.6802083333334,65.02483991784487L1134.7033854166666,72.0024039507071L1136.7497395833332,76.18894237042406L1137.7729166666666,73.98836542225484L1138.79609375,72.6680192533525L1139.8192708333333,86.01331155201109L1141.8656250000001,70.45798693120707L1142.8888020833333,65.83729215872381L1143.9119791666667,67.77737529523426L1145.9583333333333,87.79142517714013L1146.9815104166667,85.66235510628434L1148.0046875,65.534913063771L1149.0278645833332,62.88344783826324L1151.07421875,47.15506870295883L1152.0973958333334,56.56804122177573L1154.14375,71.64082473306627L1156.1901041666667,66.54699483984001L1157.21328125,82.34069690390419L1160.0781770833332,72.96691814234276L1161.1013541666666,48.49265088540585L1162.12453125,47.945590531243965L1163.1477083333334,61.754854318746766L1165.1940625,60.61541259124806L1167.2404166666668,74.0692475547491L1168.26359375,119.84154853284986L1169.2867708333333,109.60492911971056L1170.3099479166667,89.32545747182633L1171.3331249999999,77.15777448309666L1172.3563020833333,69.857164689858L1173.3794791666667,65.4767988139148L1174.40265625,67.56107928834888L1175.4258333333335,59.38664757300933L1176.4490104166666,49.76948854380561L1178.4953645833334,53.42419312628357L1179.5185416666666,74.46701587577036L1180.54171875,72.95520952546224L1181.5648958333334,62.62312571527775L1184.6344270833333,56.42387542916708L1185.6576041666667,52.70432525750027L1186.68078125,59.89759515450055L1187.7039583333333,64.21355709270034L1188.7271354166667,80.94063425562064L1190.7734895833332,90.97688055337238L1191.7966666666666,92.28612833202345L1192.81984375,93.0716769992145L1193.8430208333334,69.98050619952954L1194.8661979166666,93.82580371971818L1199.9820833333333,93.99548223183132L1201.0052604166667,75.24728933909921L1202.0284374999999,63.99837360346038L1203.0516145833333,71.38652416207708L1204.0747916666667,85.24441449724713L1205.09796875,79.42164869834869L1206.1211458333332,66.50298921900963L1207.1443229166666,49.32679353140662L1208.1675,76.72107611884354L1209.1906770833334,74.30764567130637L1210.2138541666668,68.147087402784L1211.23703125,55.02575244167042L1212.2602083333334,70.71545146500182L1213.2833854166665,75.41677087900109L1214.3065625,87.66256252740067L1215.3297395833333,71.4475375164406L1216.3529166666667,80.56852250986458L1217.37609375,62.47861350591876L1218.3992708333333,65.76216810355146L1219.4224479166667,58.307300862131115L1220.445625,58.54688051727908L1221.4688020833335,49.2656283103679L1222.4919791666666,53.12187698622114L1223.51515625,69.57312619173291L1225.5615104166666,74.73137571503952L1227.6078645833334,58.9763254290246L1228.6310416666665,58.94829525741517" style="fill: none;" fill="none"></path></g></g></g></g><g opacity="0.2"><g><g><g><path stroke="rgb(255, 112, 67)" stroke-width="2px" d="M125.85078125,541.9375L127.89713541666667,353.4375L128.9203125,412.34375L130.96666666666667,329.875L134.03619791666665,388.78125L135.059375,447.6875L136.08255208333335,377L137.10572916666666,294.53125L138.12890625,365.21875L140.17526041666667,318.09375L143.24479166666666,329.875L144.26796875,294.53125L146.31432291666667,471.25L147.3375,318.09375L148.36067708333334,306.3125L149.38385416666668,341.65625L150.40703125,223.84375L151.43020833333333,329.875L153.4765625,270.96875L154.4997395833333,318.09375L157.56927083333332,306.3125L158.59244791666669,282.75L159.615625,318.09375L160.63880208333333,259.1875L161.66197916666664,259.1875L164.73151041666665,270.96875L165.75468750000002,306.3125L166.77786458333333,247.40625L167.80104166666666,235.625L168.82421875,294.53125L169.84739583333334,294.53125L170.87057291666665,388.78125L171.89375,200.28125L172.91692708333335,223.84375L173.94010416666666,329.875L175.98645833333333,353.4375L177.00963541666667,247.40625L178.03281249999998,235.625L179.05598958333334,223.84375L181.10234375,235.625L182.12552083333335,223.84375L183.14869791666666,306.3125L184.171875,259.1875L186.21822916666667,223.84375L187.24140624999998,223.84375L189.28776041666669,247.40625L190.3109375,270.96875L191.33411458333333,318.09375L192.35729166666667,223.84375L193.38046875,247.40625L194.40364583333331,247.40625L196.45000000000002,153.15625L197.47317708333333,235.625L199.31489583333334,212.0625L200.33807291666665,200.28125L202.38442708333332,223.84375L205.45395833333333,153.15625L206.47713541666667,129.59375L207.5003125,247.40625L208.52348958333334,223.84375L209.54666666666665,94.25L210.56984375000002,188.5L211.59302083333333,223.84375L212.61619791666666,188.5L215.68572916666668,235.625L216.70890624999998,235.625L219.7784375,200.28125L222.84796875,129.59375L223.87114583333332,259.1875L224.89432291666668,200.28125L225.9175,188.5L226.94067708333333,176.71875L227.96385416666666,212.0625L230.0102083333333,129.59375L231.03338541666668,270.96875L232.0565625,106.03125L233.07973958333332,212.0625L234.1029166666667,164.9375L236.14927083333333,164.9375L237.17244791666664,212.0625L240.24197916666665,223.84375L241.26515625000002,153.15625L243.31151041666666,200.28125L244.3346875,106.03125L246.38104166666665,212.0625L248.42739583333335,153.15625L249.45057291666666,176.71875L250.47375,94.25L251.49692708333333,212.0625L252.52010416666667,235.625L253.54328124999998,176.71875L255.58963541666665,164.9375L256.61281249999996,129.59375L257.63598958333336,223.84375L258.6591666666667,188.5L260.70552083333337,223.84375L261.72869791666665,117.8125L262.751875,270.96875L264.79822916666666,188.5L265.82140625,94.25L266.84458333333333,164.9375L268.8909375,259.1875L269.91411458333334,164.9375L271.96046875,188.5L272.9836458333333,188.5L275.03000000000003,212.0625L276.0531770833333,235.625L277.07635416666665,164.9375L279.1227083333333,129.59375L280.14588541666666,223.84375L281.1690625,259.1875L283.21541666666667,117.8125L284.23859375,141.375L285.26177083333334,141.375L286.2849479166667,176.71875L288.33130208333336,188.5L289.35447916666664,117.8125L290.37765625,164.9375L291.40083333333337,188.5L292.42401041666665,129.59375L293.4471875,106.03125L295.28890624999997,212.0625L296.31208333333336,141.375L297.33526041666664,106.03125L299.3816145833334,117.8125L300.40479166666665,141.375L303.47432291666667,188.5L307.56703125,141.375L308.59020833333335,117.8125L310.6365625,106.03125L311.65973958333336,223.84375L312.68291666666664,94.25L314.7292708333334,117.8125L315.75244791666665,70.6875L316.775625,94.25L317.7988020833334,106.03125L318.82197916666667,176.71875L321.8915104166667,106.03125L322.9146875,141.375L323.9378645833333,176.71875L324.9610416666667,188.5L328.03057291666664,153.15625L329.05375000000004,176.71875L330.0769270833333,164.9375L331.10010416666665,141.375L332.12328125000005,129.59375L333.1464583333333,106.03125L335.1928125,106.03125L336.21598958333334,129.59375L337.2391666666667,176.71875L339.2855208333333,117.8125L340.3086979166667,106.03125L341.331875,153.15625L342.3550520833333,153.15625L343.3782291666667,188.5L344.40140625000004,106.03125L345.4245833333333,164.9375L347.4709375,94.25L348.4941145833333,212.0625L350.54046874999995,82.46875L351.56364583333334,106.03125L352.5868229166667,117.8125L354.63317708333335,106.03125L355.6563541666667,164.9375L356.67953124999997,141.375L357.7027083333333,117.8125L358.7258854166667,117.8125L359.7490625,106.03125L360.7722395833333,141.375L361.7954166666667,164.9375L362.81859375,94.25L363.8417708333333,94.25L365.888125,188.5L368.95765625,106.03125L369.98083333333335,94.25L371.00401041666663,82.46875L372.02718749999997,106.03125L374.07354166666664,164.9375L376.1198958333334,153.15625L378.16625,82.46875L380.21260416666667,106.03125L382.25895833333334,200.28125L383.2821354166666,141.375L384.3053125,141.375L385.32848958333335,153.15625L386.35166666666663,129.59375L388.39802083333336,106.03125L389.42119791666664,94.25L391.2629166666666,141.375L392.28609375,153.15625L393.30927083333336,129.59375L394.33244791666664,129.59375L395.35562500000003,117.8125L396.37880208333337,117.8125L401.4946875,94.25L403.5410416666667,70.6875L404.56421875,70.6875L406.6105729166667,94.25L407.63375,94.25L408.6569270833333,106.03125L409.6801041666667,164.9375L410.70328125000003,153.15625L411.7264583333333,70.6875L412.74963541666665,117.8125L413.77281250000004,117.8125L414.7959895833333,129.59375L415.81916666666666,94.25L416.84234375000005,82.46875L419.911875,117.8125L420.93505208333335,129.59375L422.98140624999996,188.5L426.0509375,58.90625L427.0741145833333,70.6875L429.12046875,106.03125L430.1436458333333,188.5L431.16682291666666,153.15625L432.19,117.8125L433.21317708333333,141.375L434.2363541666667,176.71875L435.25953124999995,94.25L436.28270833333335,70.6875L437.3058854166667,141.375L438.32906249999996,141.375L439.35223958333336,117.8125L440.3754166666667,129.59375L441.39859375,82.46875L443.4449479166667,82.46875L444.468125,129.59375L446.5144791666667,129.59375L448.56083333333333,47.125L450.6071875,70.6875L452.6535416666666,70.6875L453.67671875,58.90625L454.69989583333336,94.25L455.72307291666664,58.90625L456.74625,164.9375L457.76942708333337,106.03125L458.79260416666665,82.46875L459.81578125,94.25L460.8389583333334,70.6875L461.86213541666666,106.03125L462.8853125,129.59375L463.90848958333333,117.8125L464.9316666666667,47.125L465.95484375,164.9375L466.97802083333335,94.25L468.0011979166666,106.03125L470.04755208333336,117.8125L471.07072916666664,70.6875L472.09390625000003,70.6875L473.11708333333337,82.46875L474.14026041666665,82.46875L475.1634375,70.6875L476.1866145833333,94.25L477.20979166666666,106.03125L478.23296875,141.375L479.2561458333333,94.25L480.2793229166667,141.375L481.3025,94.25L482.3256770833333,70.6875L484.37203125,94.25L485.3952083333333,106.03125L488.2601041666667,47.125L490.3064583333333,82.46875L491.3296354166667,82.46875L492.3528125,58.90625L493.3759895833333,70.6875L494.3991666666667,106.03125L496.4455208333333,35.34375L497.46869791666666,94.25L499.51505208333333,94.25L500.53822916666667,82.46875L501.56140624999995,35.34375L502.58458333333334,70.6875L503.6077604166667,82.46875L505.65411458333335,94.25L506.6772916666667,106.03125L507.70046874999997,94.25L508.7236458333333,129.59375L511.7931770833333,70.6875L513.8395312499999,94.25L514.8627083333333,117.8125L516.9090625,129.59375L517.9322395833333,164.9375L518.9554166666667,164.9375L521.0017708333334,35.34375L522.0249479166667,94.25L524.0713020833333,129.59375L526.11765625,106.03125L531.2335416666666,70.6875L532.25671875,82.46875L535.32625,106.03125L536.3494270833334,58.90625L537.3726041666666,106.03125L538.39578125,141.375L539.4189583333333,117.8125L540.4421354166667,82.46875L542.4884895833334,106.03125L544.53484375,129.59375L546.5811979166666,58.90625L548.6275520833334,129.59375L551.6970833333334,94.25L552.7202604166666,94.25L554.7666145833333,129.59375L555.7897916666667,117.8125L556.81296875,82.46875L557.8361458333333,141.375L558.8593229166667,94.25L560.9056770833333,94.25L561.9288541666666,117.8125L562.95203125,129.59375L563.9752083333333,117.8125L564.9983854166667,117.8125L566.0215625000001,58.90625L567.0447395833334,141.375L568.0679166666666,94.25L569.09109375,70.6875L571.1374479166667,58.90625L572.160625,47.125L574.2069791666667,94.25L575.23015625,58.90625L576.2533333333333,129.59375L577.2765104166667,117.8125L578.2996875,70.6875L579.3228645833333,117.8125L580.3460416666667,94.25L581.36921875,35.34375L583.2109375,47.125L584.2341145833333,94.25L585.2572916666667,82.46875L586.28046875,141.375L587.3036458333333,106.03125L588.3268229166667,82.46875L589.35,94.25L590.3731770833333,129.59375L591.3963541666667,82.46875L592.41953125,141.375L595.4890624999999,129.59375L596.5122395833333,117.8125L600.6049479166667,106.03125L603.6744791666666,47.125L604.69765625,106.03125L605.7208333333333,106.03125L606.7440104166666,82.46875L607.7671875,106.03125L609.8135416666667,82.46875L610.83671875,82.46875L611.8598958333333,58.90625L614.9294270833334,82.46875L615.9526041666667,58.90625L617.9989583333332,35.34375L622.0916666666667,47.125L623.11484375,82.46875L624.1380208333333,58.90625L625.1611979166667,82.46875L626.184375,141.375L627.2075520833333,58.90625L628.2307291666667,70.6875L629.25390625,82.46875L630.2770833333333,106.03125L631.3002604166667,47.125L633.3466145833333,82.46875L634.3697916666667,94.25L635.3929687499999,35.34375L636.4161458333333,129.59375L637.4393229166667,47.125L638.4625,94.25L639.4856770833334,141.375L642.5552083333333,47.125L643.5783854166667,94.25L644.6015625,70.6875L650.740625,70.6875L652.7869791666666,129.59375L653.81015625,129.59375L654.8333333333334,82.46875L655.8565104166667,82.46875L656.8796875,70.6875L657.9028645833334,94.25L658.9260416666666,47.125L659.94921875,106.03125L660.9723958333333,82.46875L661.9955729166667,94.25L663.0187500000001,58.90625L664.0419270833333,70.6875L665.0651041666666,212.0625L666.08828125,47.125L667.1114583333333,70.6875L668.1346354166667,82.46875L669.1578125000001,82.46875L671.2041666666667,164.9375L672.2273437499999,47.125L673.2505208333333,70.6875L675.296875,117.8125L677.3432291666667,94.25L680.2081250000001,47.125L681.2313020833333,82.46875L682.2544791666667,47.125L684.3008333333333,141.375L685.3240104166667,141.375L686.3471875,106.03125L688.3935416666667,106.03125L689.41671875,47.125L690.4398958333334,82.46875L691.4630729166668,58.90625L692.4862499999999,58.90625L693.5094270833333,141.375L694.5326041666666,82.46875L695.55578125,106.03125L697.6021354166667,106.03125L698.6253125,58.90625L699.6484895833333,58.90625L700.6716666666666,82.46875L701.69484375,58.90625L702.7180208333334,35.34375L703.7411979166667,82.46875L704.764375,129.59375L705.7875520833333,47.125L706.8107291666666,82.46875L707.83390625,70.6875L708.8570833333333,58.90625L709.8802604166667,70.6875L710.9034375,70.6875L712.9497916666667,82.46875L713.9729687500001,70.6875L714.9961458333333,106.03125L717.0424999999999,94.25L718.0656770833333,141.375L719.0888541666667,70.6875L720.11203125,58.90625L722.1583854166666,58.90625L723.1815624999999,47.125L724.2047395833333,70.6875L725.2279166666667,58.90625L726.25109375,141.375L727.2742708333334,106.03125L728.2974479166666,82.46875L730.3438020833333,58.90625L732.39015625,82.46875L733.4133333333334,106.03125L734.4365104166666,35.34375L737.5060416666666,35.34375L741.59875,129.59375L742.6219270833334,94.25L743.6451041666667,70.6875L744.6682812500001,70.6875L745.6914583333332,58.90625L746.7146354166666,141.375L747.7378125,70.6875L748.7609895833333,82.46875L751.8305208333333,35.34375L752.8536979166666,94.25L753.876875,58.90625L754.9000520833333,82.46875L756.9464062500001,82.46875L757.9695833333333,106.03125L758.9927604166667,70.6875L761.0391145833333,117.8125L762.0622916666667,70.6875L763.08546875,70.6875L764.1086458333333,82.46875L765.1318229166667,129.59375L766.155,82.46875L767.1781770833334,70.6875L768.2013541666668,153.15625L769.2245312499999,47.125L770.2477083333333,141.375L771.2708854166666,106.03125L772.2940625,94.25L773.3172395833334,35.34375L775.1589583333333,70.6875L776.1821354166666,58.90625L777.2053125,47.125L780.27484375,94.25L781.2980208333333,70.6875L783.344375,82.46875L784.3675520833334,47.125L785.3907291666667,58.90625L786.41390625,70.6875L787.4370833333334,106.03125L788.4602604166666,70.6875L789.4834375,70.6875L790.5066145833334,58.90625L791.5297916666667,58.90625L792.55296875,129.59375L793.5761458333333,47.125L795.6225000000001,23.5625L796.6456770833333,70.6875L797.6688541666666,94.25L798.69203125,164.9375L799.7152083333333,70.6875L801.7615625000001,117.8125L802.7847395833334,94.25L803.8079166666666,70.6875L804.8310937499999,70.6875L805.8542708333333,70.6875L806.8774479166667,35.34375L807.900625,94.25L808.9238020833334,58.90625L809.9469791666667,47.125L810.97015625,106.03125L811.9933333333333,82.46875L813.0165104166667,106.03125L814.0396875,70.6875L817.10921875,82.46875L819.1555729166666,70.6875L821.2019270833333,47.125L824.2714583333334,117.8125L825.2946354166667,82.46875L826.3178125000001,82.46875L827.3409895833332,94.25L828.3641666666666,70.6875L829.38734375,58.90625L830.4105208333333,58.90625L831.4336979166667,47.125L832.4568750000001,70.6875L833.4800520833332,94.25L834.5032291666666,11.78125L835.52640625,70.6875L836.5495833333333,94.25L839.6191145833333,129.59375L840.6422916666667,23.5625L841.66546875,58.90625L843.7118229166667,11.78125L844.7349999999999,35.34375L846.7813541666667,82.46875L847.80453125,94.25L848.8277083333334,82.46875L849.8508854166668,35.34375L850.8740624999999,47.125L851.8972395833333,35.34375L854.9667708333334,70.6875L855.9899479166668,47.125L857.013125,35.34375L861.1058333333334,106.03125L862.1290104166667,94.25L864.1753645833334,70.6875L865.1985416666666,94.25L866.22171875,82.46875L867.2448958333334,58.90625L868.2680729166667,94.25L869.29125,82.46875L871.13296875,117.8125L872.1561458333334,94.25L873.1793229166666,82.46875L874.2025,23.5625L876.2488541666667,94.25L877.27203125,58.90625L878.2952083333333,94.25L879.3183854166666,117.8125L880.3415625,58.90625L881.3647395833333,82.46875L882.3879166666667,47.125L883.4110937500001,70.6875L886.4806249999999,70.6875L887.5038020833333,117.8125L889.55015625,94.25L890.5733333333334,58.90625L891.5965104166667,58.90625L892.6196874999999,70.6875L893.6428645833333,106.03125L894.6660416666667,35.34375L896.7123958333333,35.34375L897.7355729166666,94.25L898.75875,58.90625L899.7819270833334,82.46875L900.8051041666666,58.90625L901.82828125,70.6875L902.8514583333333,70.6875L903.8746354166666,47.125L906.9441666666667,106.03125L907.96734375,47.125L910.0136979166666,11.78125L911.036875,82.46875L912.0600520833334,70.6875L913.0832291666667,94.25L914.1064062500001,47.125L915.1295833333332,47.125L917.1759375,117.8125L918.1991145833333,58.90625L919.2222916666667,58.90625L920.2454687500001,70.6875L921.2686458333333,58.90625L922.2918229166667,129.59375L923.315,47.125L924.3381770833333,106.03125L925.3613541666667,106.03125L926.3845312499999,35.34375L927.4077083333333,106.03125L928.4308854166667,58.90625L930.4772395833334,58.90625L932.5235937499999,47.125L933.5467708333333,82.46875L934.5699479166667,47.125L935.593125,47.125L936.6163020833334,94.25L937.6394791666668,47.125L939.6858333333333,94.25L940.7090104166666,129.59375L941.7321875,82.46875L942.7553645833334,82.46875L943.7785416666667,94.25L944.80171875,35.34375L946.8480729166666,58.90625L948.8944270833334,23.5625L949.9176041666666,23.5625L951.9639583333333,23.5625L952.9871354166667,70.6875L954.0103125,129.59375L957.07984375,58.90625L958.1030208333333,94.25L959.1261979166667,70.6875L960.1493750000001,94.25L961.1725520833334,70.6875L963.2189062499999,94.25L964.2420833333333,106.03125L965.2652604166667,70.6875L967.1069791666666,82.46875L968.13015625,106.03125L969.1533333333333,58.90625L970.1765104166667,106.03125L972.2228645833333,117.8125L973.2460416666667,82.46875L975.2923958333333,70.6875L976.3155729166667,58.90625L977.33875,106.03125L978.3619270833333,11.78125L980.40828125,94.25L981.4314583333334,141.375L982.4546354166667,58.90625L983.4778125,47.125L985.5241666666666,35.34375L987.5705208333334,70.6875L989.616875,58.90625L990.6400520833333,82.46875L991.6632291666666,35.34375L992.68640625,106.03125L993.7095833333334,70.6875L997.8022916666666,47.125L998.82546875,70.6875L999.8486458333333,106.03125L1000.8718229166667,47.125L1001.895,58.90625L1003.9413541666667,82.46875L1004.96453125,82.46875L1005.9877083333333,82.46875L1007.0108854166667,82.46875L1008.0340624999999,70.6875L1009.0572395833333,82.46875L1010.0804166666667,82.46875L1011.10359375,35.34375L1012.1267708333334,35.34375L1013.1499479166667,35.34375L1015.1963020833333,106.03125L1016.2194791666667,70.6875L1017.24265625,82.46875L1018.2658333333334,0L1019.2890104166668,11.78125L1020.3121874999999,94.25L1021.3353645833333,94.25L1023.38171875,82.46875L1024.4048958333333,82.46875L1025.4280729166667,47.125L1026.4512499999998,70.6875L1027.4744270833332,47.125L1028.4976041666666,70.6875L1029.52078125,94.25L1030.5439583333334,82.46875L1031.5671354166666,94.25L1035.65984375,70.6875L1036.6830208333333,58.90625L1038.729375,47.125L1039.7525520833333,70.6875L1040.7757291666667,58.90625L1041.79890625,58.90625L1042.8220833333335,82.46875L1043.8452604166666,129.59375L1044.8684375,58.90625L1046.9147916666666,70.6875L1047.93796875,94.25L1048.9611458333334,58.90625L1049.9843229166665,47.125L1052.0306770833333,58.90625L1053.0538541666667,35.34375L1054.0770312500001,58.90625L1055.1002083333333,82.46875L1056.1233854166667,117.8125L1057.1465625,117.8125L1059.1929166666666,58.90625L1060.21609375,82.46875L1063.0809895833333,94.25L1064.1041666666667,82.46875L1065.1273437500001,94.25L1066.1505208333333,82.46875L1067.1736979166667,82.46875L1068.196875,47.125L1070.2432291666667,58.90625L1072.2895833333332,11.78125L1075.3591145833334,47.125L1076.3822916666668,82.46875L1077.40546875,82.46875L1078.4286458333333,23.5625L1080.475,58.90625L1081.4981770833333,58.90625L1082.5213541666667,23.5625L1084.5677083333333,106.03125L1085.5908854166667,70.6875L1086.6140625,35.34375L1087.6372395833334,82.46875L1089.68359375,23.5625L1090.7067708333334,23.5625L1091.7299479166666,94.25L1092.753125,94.25L1093.7763020833333,117.8125L1094.7994791666667,141.375L1095.82265625,35.34375L1096.8458333333333,23.5625L1097.8690104166667,58.90625L1099.9153645833335,70.6875L1100.9385416666667,82.46875L1102.9848958333332,129.59375L1105.03125,47.125L1106.0544270833334,70.6875L1108.10078125,58.90625L1109.1239583333333,70.6875L1110.1471354166667,70.6875L1111.1703125000001,35.34375L1112.1934895833333,106.03125L1113.2166666666667,58.90625L1116.2861979166667,129.59375L1117.309375,70.6875L1118.3325520833334,58.90625L1119.3557291666666,58.90625L1121.4020833333334,11.78125L1122.4252604166668,23.5625L1123.4484375,11.78125L1124.4716145833333,47.125L1125.4947916666665,106.03125L1128.5643229166667,70.6875L1130.6106770833333,70.6875L1131.6338541666667,70.6875L1133.6802083333334,58.90625L1134.7033854166666,82.46875L1136.7497395833332,82.46875L1137.7729166666666,70.6875L1138.79609375,70.6875L1139.8192708333333,106.03125L1141.8656250000001,47.125L1142.8888020833333,58.90625L1143.9119791666667,70.6875L1145.9583333333333,117.8125L1146.9815104166667,82.46875L1148.0046875,35.34375L1149.0278645833332,58.90625L1151.07421875,23.5625L1152.0973958333334,70.6875L1154.14375,94.25L1156.1901041666667,58.90625L1157.21328125,106.03125L1160.0781770833332,58.90625L1161.1013541666666,11.78125L1162.12453125,47.125L1163.1477083333334,82.46875L1165.1940625,58.90625L1167.2404166666668,94.25L1168.26359375,188.5L1169.2867708333333,94.25L1170.3099479166667,58.90625L1171.3331249999999,58.90625L1172.3563020833333,58.90625L1173.3794791666667,58.90625L1174.40265625,70.6875L1175.4258333333335,47.125L1176.4490104166666,35.34375L1178.4953645833334,58.90625L1179.5185416666666,106.03125L1180.54171875,70.6875L1181.5648958333334,47.125L1184.6344270833333,47.125L1185.6576041666667,47.125L1186.68078125,70.6875L1187.7039583333333,70.6875L1188.7271354166667,106.03125L1190.7734895833332,106.03125L1191.7966666666666,94.25L1192.81984375,94.25L1193.8430208333334,35.34375L1194.8661979166666,129.59375L1199.9820833333333,94.25L1201.0052604166667,47.125L1202.0284374999999,47.125L1203.0516145833333,82.46875L1204.0747916666667,106.03125L1205.09796875,70.6875L1206.1211458333332,47.125L1207.1443229166666,23.5625L1208.1675,117.8125L1209.1906770833334,70.6875L1210.2138541666668,58.90625L1211.23703125,35.34375L1212.2602083333334,94.25L1213.2833854166665,82.46875L1214.3065625,106.03125L1215.3297395833333,47.125L1216.3529166666667,94.25L1217.37609375,35.34375L1218.3992708333333,70.6875L1219.4224479166667,47.125L1220.445625,58.90625L1221.4688020833335,35.34375L1222.4919791666666,58.90625L1223.51515625,94.25L1225.5615104166666,82.46875L1227.6078645833334,35.34375L1228.6310416666665,58.90625" style="fill: none;" fill="none"></path></g></g></g></g></g></g><g transform="translate(53, 377)" clip-path="url(#clip_1)"><clipPath id="clip_1"><rect width="1227" height="23"></rect></clipPath><g><g><line x1="0" y1="0" x2="0" y2="5" style="visibility: inherit;" fill="rgb(0, 0, 0)" stroke="rgb(204, 204, 204)" stroke-width="1px"></line><line x1="102.31770833333333" y1="0" x2="102.31770833333333" y2="5" style="visibility: inherit;" fill="rgb(0, 0, 0)" stroke="rgb(204, 204, 204)" stroke-width="1px"></line><line x1="204.63541666666666" y1="0" x2="204.63541666666666" y2="5" style="visibility: inherit;" fill="rgb(0, 0, 0)" stroke="rgb(204, 204, 204)" stroke-width="1px"></line><line x1="306.953125" y1="0" x2="306.953125" y2="5" style="visibility: inherit;" fill="rgb(0, 0, 0)" stroke="rgb(204, 204, 204)" stroke-width="1px"></line><line x1="409.2708333333333" y1="0" x2="409.2708333333333" y2="5" style="visibility: inherit;" fill="rgb(0, 0, 0)" stroke="rgb(204, 204, 204)" stroke-width="1px"></line><line x1="511.5885416666667" y1="0" x2="511.5885416666667" y2="5" style="visibility: inherit;" fill="rgb(0, 0, 0)" stroke="rgb(204, 204, 204)" stroke-width="1px"></line><line x1="613.90625" y1="0" x2="613.90625" y2="5" style="visibility: inherit;" fill="rgb(0, 0, 0)" stroke="rgb(204, 204, 204)" stroke-width="1px"></line><line x1="716.2239583333334" y1="0" x2="716.2239583333334" y2="5" style="visibility: inherit;" fill="rgb(0, 0, 0)" stroke="rgb(204, 204, 204)" stroke-width="1px"></line><line x1="818.5416666666666" y1="0" x2="818.5416666666666" y2="5" style="visibility: inherit;" fill="rgb(0, 0, 0)" stroke="rgb(204, 204, 204)" stroke-width="1px"></line><line x1="920.859375" y1="0" x2="920.859375" y2="5" style="visibility: inherit;" fill="rgb(0, 0, 0)" stroke="rgb(204, 204, 204)" stroke-width="1px"></line><line x1="1023.1770833333334" y1="0" x2="1023.1770833333334" y2="5" style="visibility: inherit;" fill="rgb(0, 0, 0)" stroke="rgb(204, 204, 204)" stroke-width="1px"></line><line x1="1125.4947916666665" y1="0" x2="1125.4947916666665" y2="5" style="visibility: inherit;" fill="rgb(0, 0, 0)" stroke="rgb(204, 204, 204)" stroke-width="1px"></line><line x1="1227.8125" y1="0" x2="1227.8125" y2="5" style="visibility: inherit;" fill="rgb(0, 0, 0)" stroke="rgb(204, 204, 204)" stroke-width="1px"></line></g><g transform="translate(0, 8)"><text x="0" y="0" dx="0em" dy="0.95em" style="text-anchor: middle; visibility: hidden; font-family: &quot;Helvetica Neue&quot;, sans-serif; font-size: 12px; font-weight: 200;" fill="rgb(50, 49, 63)" stroke="none" stroke-width="1px">-1k</text><text x="102.31770833333333" y="0" dx="0em" dy="0.95em" style="text-anchor: middle; visibility: inherit; font-family: &quot;Helvetica Neue&quot;, sans-serif; font-size: 12px; font-weight: 200;" fill="rgb(50, 49, 63)" stroke="none" stroke-width="1px">0</text><text x="204.63541666666666" y="0" dx="0em" dy="0.95em" style="text-anchor: middle; visibility: inherit; font-family: &quot;Helvetica Neue&quot;, sans-serif; font-size: 12px; font-weight: 200;" fill="rgb(50, 49, 63)" stroke="none" stroke-width="1px">1k</text><text x="306.953125" y="0" dx="0em" dy="0.95em" style="text-anchor: middle; visibility: inherit; font-family: &quot;Helvetica Neue&quot;, sans-serif; font-size: 12px; font-weight: 200;" fill="rgb(50, 49, 63)" stroke="none" stroke-width="1px">2k</text><text x="409.2708333333333" y="0" dx="0em" dy="0.95em" style="text-anchor: middle; visibility: inherit; font-family: &quot;Helvetica Neue&quot;, sans-serif; font-size: 12px; font-weight: 200;" fill="rgb(50, 49, 63)" stroke="none" stroke-width="1px">3k</text><text x="511.5885416666667" y="0" dx="0em" dy="0.95em" style="text-anchor: middle; visibility: inherit; font-family: &quot;Helvetica Neue&quot;, sans-serif; font-size: 12px; font-weight: 200;" fill="rgb(50, 49, 63)" stroke="none" stroke-width="1px">4k</text><text x="613.90625" y="0" dx="0em" dy="0.95em" style="text-anchor: middle; visibility: inherit; font-family: &quot;Helvetica Neue&quot;, sans-serif; font-size: 12px; font-weight: 200;" fill="rgb(50, 49, 63)" stroke="none" stroke-width="1px">5k</text><text x="716.2239583333334" y="0" dx="0em" dy="0.95em" style="text-anchor: middle; visibility: inherit; font-family: &quot;Helvetica Neue&quot;, sans-serif; font-size: 12px; font-weight: 200;" fill="rgb(50, 49, 63)" stroke="none" stroke-width="1px">6k</text><text x="818.5416666666666" y="0" dx="0em" dy="0.95em" style="text-anchor: middle; visibility: inherit; font-family: &quot;Helvetica Neue&quot;, sans-serif; font-size: 12px; font-weight: 200;" fill="rgb(50, 49, 63)" stroke="none" stroke-width="1px">7k</text><text x="920.859375" y="0" dx="0em" dy="0.95em" style="text-anchor: middle; visibility: inherit; font-family: &quot;Helvetica Neue&quot;, sans-serif; font-size: 12px; font-weight: 200;" fill="rgb(50, 49, 63)" stroke="none" stroke-width="1px">8k</text><text x="1023.1770833333334" y="0" dx="0em" dy="0.95em" style="text-anchor: middle; visibility: inherit; font-family: &quot;Helvetica Neue&quot;, sans-serif; font-size: 12px; font-weight: 200;" fill="rgb(50, 49, 63)" stroke="none" stroke-width="1px">9k</text><text x="1125.4947916666665" y="0" dx="0em" dy="0.95em" style="text-anchor: middle; visibility: inherit; font-family: &quot;Helvetica Neue&quot;, sans-serif; font-size: 12px; font-weight: 200;" fill="rgb(50, 49, 63)" stroke="none" stroke-width="1px">10k</text><text x="1227.8125" y="0" dx="0em" dy="0.95em" style="text-anchor: middle; visibility: hidden; font-family: &quot;Helvetica Neue&quot;, sans-serif; font-size: 12px; font-weight: 200;" fill="rgb(50, 49, 63)" stroke="none" stroke-width="1px">11k</text></g><line x1="0" y1="0" x2="1227.8125" y2="0" fill="rgb(0, 0, 0)" stroke="rgb(204, 204, 204)" stroke-width="1px"></line></g></g></g></g></svg>