<svg viewBox="0 0 1281 400" xmlns="http://www.w3.org/2000/svg"><g><g><g><g><g><line x1="74.78125" y1="377" x2="69.78125" y2="377" style="visibility: inherit;" fill="rgb(0, 0, 0)" stroke="rgb(204, 204, 204)" stroke-width="1px"></line><line x1="74.78125" y1="323.14285714285717" x2="69.78125" y2="323.14285714285717" style="visibility: inherit;" fill="rgb(0, 0, 0)" stroke="rgb(204, 204, 204)" stroke-width="1px"></line><line x1="74.78125" y1="269.2857142857143" x2="69.78125" y2="269.2857142857143" style="visibility: inherit;" fill="rgb(0, 0, 0)" stroke="rgb(204, 204, 204)" stroke-width="1px"></line><line x1="74.78125" y1="215.42857142857144" x2="69.78125" y2="215.42857142857144" style="visibility: inherit;" fill="rgb(0, 0, 0)" stroke="rgb(204, 204, 204)" stroke-width="1px"></line><line x1="74.78125" y1="161.57142857142858" x2="69.78125" y2="161.57142857142858" style="visibility: inherit;" fill="rgb(0, 0, 0)" stroke="rgb(204, 204, 204)" stroke-width="1px"></line><line x1="74.78125" y1="107.71428571428572" x2="69.78125" y2="107.71428571428572" style="visibility: inherit;" fill="rgb(0, 0, 0)" stroke="rgb(204, 204, 204)" stroke-width="1px"></line><line x1="74.78125" y1="53.85714285714289" x2="69.78125" y2="53.85714285714289" style="visibility: inherit;" fill="rgb(0, 0, 0)" stroke="rgb(204, 204, 204)" stroke-width="1px"></line><line x1="74.78125" y1="0" x2="69.78125" y2="0" style="visibility: inherit;" fill="rgb(0, 0, 0)" stroke="rgb(204, 204, 204)" stroke-width="1px"></line></g><g transform="translate(64.78125, 0)"><text x="0" y="377" dx="0em" dy="0.3em" style="text-anchor: end; visibility: hidden; font-family: &quot;Helvetica Neue&quot;, sans-serif; font-size: 12px; font-weight: 200;" fill="rgb(50, 49, 63)" stroke="none" stroke-width="1px">-5e-4</text><text x="0" y="323.14285714285717" dx="0em" dy="0.3em" style="text-anchor: end; visibility: inherit; font-family: &quot;Helvetica Neue&quot;, sans-serif; font-size: 12px; font-weight: 200;" fill="rgb(50, 49, 63)" stroke="none" stroke-width="1px">0</text><text x="0" y="269.2857142857143" dx="0em" dy="0.3em" style="text-anchor: end; visibility: inherit; font-family: &quot;Helvetica Neue&quot;, sans-serif; font-size: 12px; font-weight: 200;" fill="rgb(50, 49, 63)" stroke="none" stroke-width="1px">5e-4</text><text x="0" y="215.42857142857144" dx="0em" dy="0.3em" style="text-anchor: end; visibility: inherit; font-family: &quot;Helvetica Neue&quot;, sans-serif; font-size: 12px; font-weight: 200;" fill="rgb(50, 49, 63)" stroke="none" stroke-width="1px">1e-3</text><text x="0" y="161.57142857142858" dx="0em" dy="0.3em" style="text-anchor: end; visibility: inherit; font-family: &quot;Helvetica Neue&quot;, sans-serif; font-size: 12px; font-weight: 200;" fill="rgb(50, 49, 63)" stroke="none" stroke-width="1px">1.5e-3</text><text x="0" y="107.71428571428572" dx="0em" dy="0.3em" style="text-anchor: end; visibility: inherit; font-family: &quot;Helvetica Neue&quot;, sans-serif; font-size: 12px; font-weight: 200;" fill="rgb(50, 49, 63)" stroke="none" stroke-width="1px">2e-3</text><text x="0" y="53.85714285714289" dx="0em" dy="0.3em" style="text-anchor: end; visibility: inherit; font-family: &quot;Helvetica Neue&quot;, sans-serif; font-size: 12px; font-weight: 200;" fill="rgb(50, 49, 63)" stroke="none" stroke-width="1px">2.5e-3</text><text x="0" y="0" dx="0em" dy="0.3em" style="text-anchor: end; visibility: hidden; font-family: &quot;Helvetica Neue&quot;, sans-serif; font-size: 12px; font-weight: 200;" fill="rgb(50, 49, 63)" stroke="none" stroke-width="1px">3e-3</text></g><line x1="74.78125" y1="0" x2="74.78125" y2="377" fill="rgb(0, 0, 0)" stroke="rgb(204, 204, 204)" stroke-width="1px"></line></g></g><g transform="translate(74, 0)" clip-path="url(#clip_0)"><clipPath id="clip_0"><rect width="1206" height="377"></rect></clipPath><g><g><g><line x1="0" y1="0" x2="0" y2="377" fill="rgb(0, 0, 0)" stroke="rgb(60, 60, 60)" stroke-width="1px" opacity="0.25"></line><line x1="150.77734375" y1="0" x2="150.77734375" y2="377" fill="rgb(0, 0, 0)" stroke="rgb(60, 60, 60)" stroke-width="1px" opacity="0.25"></line><line x1="301.5546875" y1="0" x2="301.5546875" y2="377" fill="rgb(0, 0, 0)" stroke="rgb(60, 60, 60)" stroke-width="1px" opacity="0.25"></line><line x1="452.33203125" y1="0" x2="452.33203125" y2="377" fill="rgb(0, 0, 0)" stroke="rgb(60, 60, 60)" stroke-width="1px" opacity="0.25"></line><line x1="603.109375" y1="0" x2="603.109375" y2="377" fill="rgb(0, 0, 0)" stroke="rgb(60, 60, 60)" stroke-width="1px" opacity="0.25"></line><line x1="753.88671875" y1="0" x2="753.88671875" y2="377" fill="rgb(0, 0, 0)" stroke="rgb(60, 60, 60)" stroke-width="1px" opacity="0.25"></line><line x1="904.6640625" y1="0" x2="904.6640625" y2="377" fill="rgb(0, 0, 0)" stroke="rgb(60, 60, 60)" stroke-width="1px" opacity="0.25"></line><line x1="1055.44140625" y1="0" x2="1055.44140625" y2="377" fill="rgb(0, 0, 0)" stroke="rgb(60, 60, 60)" stroke-width="1px" opacity="0.25"></line><line x1="1206.21875" y1="0" x2="1206.21875" y2="377" fill="rgb(0, 0, 0)" stroke="rgb(60, 60, 60)" stroke-width="1px" opacity="0.25"></line></g><g><line x1="0" y1="377" x2="1206.21875" y2="377" fill="rgb(0, 0, 0)" stroke="rgb(60, 60, 60)" stroke-width="1px" opacity="0.25"></line><line x1="0" y1="323.14285714285717" x2="1206.21875" y2="323.14285714285717" fill="rgb(0, 0, 0)" stroke="rgb(60, 60, 60)" stroke-width="1px" opacity="0.25"></line><line x1="0" y1="269.2857142857143" x2="1206.21875" y2="269.2857142857143" fill="rgb(0, 0, 0)" stroke="rgb(60, 60, 60)" stroke-width="1px" opacity="0.25"></line><line x1="0" y1="215.42857142857144" x2="1206.21875" y2="215.42857142857144" fill="rgb(0, 0, 0)" stroke="rgb(60, 60, 60)" stroke-width="1px" opacity="0.25"></line><line x1="0" y1="161.57142857142858" x2="1206.21875" y2="161.57142857142858" fill="rgb(0, 0, 0)" stroke="rgb(60, 60, 60)" stroke-width="1px" opacity="0.25"></line><line x1="0" y1="107.71428571428572" x2="1206.21875" y2="107.71428571428572" fill="rgb(0, 0, 0)" stroke="rgb(60, 60, 60)" stroke-width="1px" opacity="0.25"></line><line x1="0" y1="53.85714285714289" x2="1206.21875" y2="53.85714285714289" fill="rgb(0, 0, 0)" stroke="rgb(60, 60, 60)" stroke-width="1px" opacity="0.25"></line><line x1="0" y1="0" x2="1206.21875" y2="0" fill="rgb(0, 0, 0)" stroke="rgb(60, 60, 60)" stroke-width="1px" opacity="0.25"></line></g></g></g><g><g><line x1="0" y1="323.14285714285717" x2="1206.21875" y2="323.14285714285717" fill="rgb(0, 0, 0)" stroke="rgb(153, 153, 153)" stroke-width="1.5px"></line></g></g><g><g><line x1="150.77734375" y1="0" x2="150.77734375" y2="377" fill="rgb(0, 0, 0)" stroke="rgb(153, 153, 153)" stroke-width="1.5px"></line></g></g><g><g><g><g><g><path stroke="rgb(255, 112, 67)" stroke-width="2px" d="M170.37839843749998,-0.9668576876985071L171.88617187499997,26.133002419002594L174.14783203125,45.289161979016L174.90171875,23.75793206284027L175.65560546875,31.376384913824097L176.40949218749998,58.15654078217557L177.16337890625002,56.22657701825199L178.67115234375,46.640410612682956L180.93281249999998,65.89169821283849L181.68669921875002,74.73444174860117L183.19447265625,40.065187921267864L183.948359375,49.10800680413723L184.70224609375,57.00924399667002L185.4561328125,62.6216180930852L186.21001953125003,83.03823998875089L186.96390625,80.71237490874535L188.4716796875,97.91025896354438L189.22556640624998,92.29421079356337L191.4872265625,96.47100946848406L192.24111328125,105.34225642640695L192.995,110.8264092170337L193.74888671875,90.10685516076711L194.5027734375,108.4084017847992L196.76443359375,131.1254962075646L197.5183203125,129.15426682016385L198.27220703125,129.8067889434079L199.02609375,133.79527952167024L199.77998046874998,112.70668141400961L200.53386718750002,96.36015088457032L201.28775390625,73.6716827742357L202.041640625,116.27971269486318L202.79552734375,137.62917584198493L203.5494140625,127.31741877439978L205.05718750000003,82.01110712839932L205.81107421875,83.22233620654504L206.56496093750002,72.0089732901015L207.31884765625,83.33384678296363L208.82662109375,93.13232447247628L209.58050781249997,116.48079994473301L210.33439453125,121.26813293414418L211.08828125,120.32537151717264L212.5960546875,119.29567447966912L213.34994140625,141.14940923796516L214.85771484375002,144.83184588385478L215.6116015625,147.35459205297917L216.36548828125,123.94951994761223L217.119375,135.039834200749L217.87326171875,148.8164665685905L218.62714843749998,130.00175484915027L220.134921875,135.8485327674203L220.88880859375,130.1136101693364L222.2458046875,131.61519747481313L222.99969140625,154.3943894769796L224.50746484375003,144.62740623780516L226.769125,165.61602527631098L227.52301171874998,179.20637524862752L228.2768984375,167.18429946063048L229.03078515624998,177.3762702240319L229.78467187500002,200.699987906272L230.53855859375,178.08485599746734L231.2924453125,166.75841789669906L232.04633203125,178.78521679690036L234.30799218750002,168.9248529879782L235.06187890625,167.5935814786999L237.3235390625,170.36287957526392L239.58519921875,193.56552092953882L240.33908593750002,174.7452572363364L241.09297265625,178.99207769020737L241.846859375,179.75568552818925L242.60074609375,159.87103364556964L243.35463281250003,144.74377480400847L244.86240625000002,169.7916653662049L245.61629296875,168.52262516778595L246.37017968749998,197.23928686144794L247.12406640625,175.1054391982427L247.87795312499998,187.89119810914056L249.3857265625,178.86868294787013L250.13961328125,171.43673571782983L252.40127343749998,176.3970389640661L253.15516015625002,182.31323889459307L254.66293359375,166.20080643590512L255.4168203125,180.43240723556585L256.92459375,183.85387444619548L258.4323671875,196.44174857117832L259.18625390625,185.1066304798609L259.94014062499997,199.11968183812115L260.69402734375,195.95352076181456L261.4479140625,192.0300090051726L262.20180078125003,180.82647024379668L263.70957421875,188.0233957965506L264.4634609375,197.11222934346392L265.21734765625,183.07752692548033L265.971234375,191.7308563860895L267.4790078125,177.41164323716075L268.23289453125,183.97399307761958L268.98678125,151.78825566774657L270.4945546875,155.17846272267815L271.24844140625,186.69794824034648L272.002328125,186.60441385235083L273.5101015625,163.6297087557016L274.26398828124996,184.24438065223003L275.77176171875,196.29394079385034L276.5256484375,197.21199300318094L278.033421875,180.2826564358847L278.78730859374997,168.66245138788L279.5411953125,182.53215554942523L281.04896875000003,193.10492531742696L281.80285546875,176.67650529008023L282.5567421875,166.31978057821001L284.064515625,191.8944748224389L284.81840234375,205.6934830443859L285.5722890625,210.08032738164152L286.32617578125,194.7505500931532L287.83394921875,184.5802031536863L288.58783593749996,200.9291109417465L289.34172265625,195.26470038505204L290.095609375,213.53738536567147L290.84949609375,219.24981346554165L291.6033828125,228.56740818734573L292.96037890625,213.6951420198247L293.714265625,226.2547137693214L294.46815234375003,233.82688182945367L295.97592578125,235.83206616974277L296.7298125,226.847125933068L298.99147265625004,207.12792599081814L302.00701953125,208.18459995423788L302.76090625,211.64081534453396L304.26867968749997,226.32298269028718L305.02256640625,202.50995697886754L305.776453125,204.97700432458268L307.28422656249995,218.61578534911254L308.03811328125005,218.3870007606202L308.79200000000003,230.2031724980514L309.54588671875,229.5071374006977L310.2997734375,212.34284944785807L312.56143359375,225.880403240491L313.3153203125,225.29212901191272L314.06920703125,198.04636910759933L314.82309375,187.7252962153296L317.08475390625006,201.40930216304304L317.83864062500004,212.1619878803346L318.59252734375,195.18812436152845L319.3464140625,196.24664002371722L320.10030078125004,212.4131265894028L320.8541875,224.54685075140992L322.3619609375,232.0434885328574L323.11584765624997,237.54935856356315L323.869734375,211.90885604522794L325.37750781249997,214.0645061918371L326.13139453124995,222.72584777590768L326.88528125000005,217.01708134465554L327.63916796875003,194.035799170219L328.3930546875,195.92207315364325L329.14694140625,212.9724574145712L329.90082812500003,202.83967511685205L331.4086015625,221.60126847763837L332.16248828125,190.17044713746637L333.67026171875,212.68811531662553L334.4241484375,224.92610801738056L335.17803515624996,229.67114632869053L336.68580859375004,229.52982374035676L337.4396953125,214.41448938869877L338.19358203125,214.0160262656332L338.94746875000004,220.42400619647202L339.70135546875,225.16447723652982L340.4552421875,239.11774099999025L341.20912890625,235.04379684610748L341.96301562499997,234.53608024412824L342.71690234375,242.39858767480598L343.4707890625,246.6649150606344L344.97856249999995,224.24560351218025L347.24022265625,223.11106464288423L347.994109375,240.8227219875604L348.74799609375003,251.37839871179122L349.5018828125,241.52963272064278L351.00965625,220.56723347236468L352.5174296875,208.9410173713167L354.02520312499996,220.83151201825478L355.53297656250004,227.9636545042996L357.04075,217.23059163913666L357.79463671875004,184.848587624072L358.5485234375,198.29851217171955L359.30241015625,192.99135172331748L360.056296875,207.08821247874704L361.5640703125,226.9125798900324L362.31795703125,235.1401342302308L363.674953125,230.2688490633834L364.42883984375,237.4788542771355L365.1827265625,234.7405998099647L365.93661328125,241.42370631037326L366.6905,248.92629333658277L367.44438671874997,241.76670348805004L371.21382031250005,243.02573106720635L372.72159375,252.35539544059094L373.47548046875,260.9733387942306L374.98325390625,246.97004978635562L375.737140625,255.78179045783668L376.49102734375,235.39841659771145L377.24491406249996,238.326568584014L377.99880078125,208.1885629843459L378.7526875,239.00651921054506L379.50657421874996,241.33021608291608L380.26046093749994,248.0404016493387L381.01434765625004,243.10994048926779L381.768234375,248.1057560039161L382.52212109375,250.0186056085841L384.78378125,232.82259585064577L385.53766796875,244.69770756562988L387.04544140625,215.43190194902937L389.30710156249995,234.11043859894096L390.06098828125005,249.1595916398935L391.56876171875,236.0795886671118L392.3226484375,213.94740518215727L393.07653515625003,222.61133996140447L393.830421875,208.7528245458138L394.58430859375,219.4318484708788L395.3381953125,216.37762309752068L396.09208203124996,230.30080087280285L396.84596875,234.5990143578049L397.59985546875,231.29808203754104L398.35374218749996,204.52799325182264L399.10762890624994,217.00144212492626L399.86151562500004,223.12194103270832L400.61540234375,230.75704526668397L402.12317578125,237.23497709183545L402.8770625,242.45849444474752L404.3848359375,233.5611209534997L405.892609375,256.4174455887506L407.40038281249997,253.40321483477956L408.90815625000005,258.9932345176744L409.66204296875003,261.5207266263136L410.4159296875,259.2597396506372L411.16981640625,260.1368578114426L411.92370312500003,232.5681048550198L412.67758984375,240.33259493597643L413.4314765625,237.40304693029873L414.18536328125,250.3181670284704L414.93924999999996,250.07939781544508L415.69313671875,228.47452214612306L416.4470234375,237.4408273653483L417.20091015624996,231.76096262516992L417.95479687499994,249.96747543742777L418.70868359375004,241.55225815331394L419.4625703125,212.25335013265115L420.21645703125,218.29997582569752L421.72423046875,227.07984813869658L422.4781171875,244.06457182929526L423.23200390625,246.26731899569867L423.98589062499997,251.72954850608372L424.73977734375,261.34774219766246L425.4936640625,268.6574169778823L426.24755078124997,243.1976707772527L427.00143749999995,240.59970794371446L427.75532421875005,229.32277558010543L428.50921093750003,239.49143965288533L429.26309765625,220.08008578863465L430.016984375,220.4662520925931L430.77087109375003,227.5356641631371L432.27864453125,235.11768348943824L433.03253125,243.04697253721864L435.1434140625,259.55595429206033L436.6511875,259.52655843059847L437.40507421875,261.39446694579453L438.1589609375,268.5502449166452L438.91284765625,260.63687412433734L439.666734375,249.12675812383878L441.1745078125,267.1231432239937L441.92839453125004,269.1422207400157L443.43616796875,257.7831827249031L444.19005468750004,260.9468760541725L444.94394140625,273.5795356045262L445.697828125,275.4471823467105L446.45171484375,263.26731351036494L447.95948828125,259.75003851439754L448.713375,249.0696766130336L449.46726171874997,252.13525508229606L450.2211484375,240.9843259144619L452.48280859375,252.27336071817206L453.99058203125,246.94812309643362L454.74446875,233.91688847759377L456.2522421875,241.19257522457036L457.00612890625,219.97056857737675L457.760015625,221.9357340707944L459.26778906249996,240.37413638822275L460.02167578125,222.42837621117857L461.52944921875,229.2031113339144L463.03722265625004,240.8563599844383L466.80665625,250.11338104364916L467.56054296875,256.64577976047224L469.822203125,249.5666740487768L470.57608984375,259.64937626540365L471.3299765625,260.7537970833271L472.08386328125,249.71787431609226L472.83775,253.5592895387229L473.59163671875,250.75781316487124L475.09941015625,249.75564034825726L476.60718359375,245.92533873352465L478.11495703124996,256.4716186080821L479.62273046875004,245.7078030788995L481.88439062500004,250.92434655354432L482.63827734375,242.06894697804077L484.14605078125,243.25729321627682L484.8999375,244.41499506209328L485.65382421875,234.00405332327375L486.4077109375,234.99828830066616L487.16159765624997,248.37825240645927L488.66937109375,251.68777755258665L489.4232578125,245.5333605163926L490.17714453125,248.25918385424092L490.93103125,234.8268493238433L491.68491796875,244.6069836852351L492.4388046875,248.5043292893835L493.19269140625,242.52540502805434L493.946578125,241.8650974987979L494.70046484375,250.7248507142663L496.20823828125,260.2580499899266L496.96212499999996,262.1477671026174L498.46989843750004,265.61829288777824L499.22378515625,264.34156482057045L499.977671875,251.70672022031152L500.73155859375004,247.62822969169264L501.4854453125,250.75663979458034L502.23933203125,236.49944767973298L502.99321875,247.05763934539925L503.74710546875,266.19208331771L505.10410156250003,259.0063112088153L505.85798828125,259.24555661417986L506.611875,260.54978365490746L507.36576171875004,251.39064696641213L508.1196484375,251.61684090381658L508.87353515625,254.47275367168493L509.627421875,257.96599062629286L510.38130859374996,246.14193098039217L511.1351953125,252.00858177710688L511.88908203125,224.00114824349012L514.1507421875,217.18762408224197L514.90462890625,216.58153393050787L517.92017578125,229.05031772086903L520.1818359375001,250.44172366179242L520.93572265625,253.44228338989447L521.689609375,249.59838028032848L522.44349609375,260.1534690895133L523.1973828125,245.10781626212102L524.70515625,262.11037177618806L525.4590429687499,265.12869314588414L526.2129296875,268.7632437745683L528.47458984375,267.249606842811L529.2284765625,271.9312480653326L530.73625,278.47608609807816L533.751796875,278.7277821072234L534.50568359375,275.4186381485041L535.2595703124999,273.77532968559933L536.01345703125,271.6413874816456L536.76734375,261.8420965108246L537.52123046875,272.54078083163006L538.2751171875,274.72251552267034L539.0290039062501,261.02890359399544L539.782890625,247.3601576492316L540.53677734375,253.23865879511953L542.04455078125,258.3138851240727L542.7984375,241.7801966094176L543.55232421875,261.79243018863906L544.3062109374999,241.48740916856116L545.06009765625,262.3402170163283L545.813984375,246.0782413559043L546.56787109375,244.5643789041846L548.8295312500001,257.05605760592255L549.58341796875,262.53039213817243L550.3373046875,271.0073048636958L554.860625,273.702777794457L556.3683984375,264.18373406855727L557.12228515625,258.572842767834L557.8761718750001,262.59958695392487L558.63005859375,252.59169038929662L559.3839453125,248.25496161912113L560.13783203125,248.49302184505302L560.89171875,253.24368449850698L561.64560546875,244.05217778560456L562.3994921875,254.347641828242L563.1533789062499,241.1976627533952L563.907265625,249.71522645925614L564.66115234375,246.14800251471223L565.4150390625,225.60828286495L566.16892578125,235.50548053844983L566.9228125,253.3852776071691L567.6766992187501,249.42305372048781L568.4305859375,253.7742193433115L569.938359375,250.91812504655366L570.69224609375,253.51376238228698L571.4461328125,251.0560171876807L572.9539062499999,239.4532935966016L574.4616796875,237.01821936400006L576.5725625,249.53720367592902L577.32644921875,261.4381327958746L578.0803359375,270.0503118509248L579.5881093749999,265.49900943323433L580.34199609375,250.06139168291534L581.0958828125,245.1310448467048L582.60365625,254.0268051502763L583.3575429687501,262.28228110678907L584.1114296875,264.797612693804L584.86531640625,263.83338189589404L585.619203125,269.6695187339214L586.37308984375,218.15415558670836L587.1269765625,240.9397304920451L587.88086328125,233.4352850201017L589.3886367187499,234.56638863092877L590.1425234375,241.03856106174294L590.89641015625,251.97548854058863L591.650296875,269.2027182969429L592.40418359375,262.1352531267136L593.1580703125001,280.2184889629899L593.91195703125,275.114299719795L594.66584375,265.0110352999377L595.41973046875,273.1307421587608L596.1736171875,269.41701024298294L596.92750390625,272.42952981815995L597.681390625,252.24013851962673L598.4352773437499,259.6881814127418L599.1891640625,255.85053481253573L600.6969375,258.6410305493841L601.45082421875,257.94793805762174L602.2047109375001,249.7542067477114L603.7124843749999,238.27023311598427L604.46637109375,239.37263080861166L605.2202578125,254.38870608403383L605.97414453125,260.216048261818L607.4819179687499,268.94090092049237L608.2358046874999,276.42216026397233L608.9896914062499,276.1067694804503L609.7435781249999,276.2166557213667L610.4974648437501,244.18615934780257L611.2513515625001,253.40746838287976L612.0052382812501,252.50292320405183L613.51301171875,258.22168899650717L615.02078515625,258.3326046263234L615.774671875,260.2709441025056L616.5285585937501,270.44958051832543L618.79021875,274.1739938768003L621.8057656249999,256.6202696912376L622.5596523437499,246.41933624905317L623.3135390625,241.03439637346673L624.06742578125,250.1572465952616L624.8213125,258.08684860335643L625.57519921875,246.7730269632003L626.3290859374999,259.32043062578424L627.0829726562499,259.4002616476932L629.3446328125001,255.7159108407023L630.0985195312501,254.534281822088L630.8524062500001,252.31787727330823L631.60629296875,253.29318796875896L633.11406640625,252.82998915387452L633.867953125,262.5436102322599L634.62183984375,265.43691365348883L636.12961328125,265.36133327425006L636.8835,268.9431526755187L637.63738671875,272.7981970400566L638.3912734375,273.32100236053276L639.14516015625,256.14580515054297L639.899046875,265.988497687614L640.6529335937499,273.32868029492477L641.4068203124999,248.112758359076L642.16070703125,256.8523384792213L642.91459375,245.6565243269246L643.66848046875,251.46249061583782L644.4223671875,257.06254557030763L645.1762539062499,265.05662158846457L646.5332500000001,272.7764877765357L647.28713671875,265.93188711030444L648.0410234375,270.17084170367536L650.30268359375,262.7234728644712L651.0565703125,257.92393356985673L652.56434375,264.7541411913295L653.31823046875,275.6362534191184L654.0721171875,273.9003099512623L654.82600390625,274.6071318317978L655.579890625,265.6670090934566L656.33377734375,259.58315025906705L657.0876640624999,266.0064432016061L657.84155078125,268.4615583738031L658.5954375,271.2259409950931L659.34932421875,258.89055380012144L660.1032109375,270.0170858677733L661.6109843749999,277.43263922188373L662.36487109375,277.3722106053634L663.1187578125,274.6867875559153L663.87264453125,243.8153057905917L664.6265312500001,256.80569608187204L666.1343046875,240.68400422886324L666.88819140625,252.68916955752007L667.642078125,255.5993891684731L668.39596484375,264.5016586380315L669.1498515625,264.25256118081325L669.90373828125,274.7677584070744L670.657625,262.1025410782139L671.41151171875,274.4089553486684L672.1653984375,276.8119733986655L672.91928515625,267.50997359972376L673.673171875,258.00776831114786L674.42705859375,246.6373326544306L675.1809453125,261.80981498608435L677.44260546875,264.7848252205837L678.95037890625,271.985404555241L680.4581523437499,271.6175154965097L682.7198125,260.0723656941999L683.4736992187501,255.79786374734422L684.2275859375001,255.78629147604408L684.98147265625,257.1365308605493L685.735359375,257.8001292809314L686.48924609375,268.50523207332424L687.2431328125,263.40737443191244L687.99701953125,271.3690725855004L688.75090625,274.1414105321152L689.50479296875,264.0748363927116L690.2586796875,280.96897342922284L691.01256640625,279.8286928732567L691.766453125,272.69901436313444L694.02811328125,240.82433880883556L694.7819999999999,264.53545923021636L695.53588671875,275.9660322927772L697.04366015625,288.29542950058834L697.797546875,289.5546309697928L699.3053203124999,267.43038369832817L700.05920703125,265.793543407867L700.81309375,266.7725463465897L701.56698046875,271.2375013205501L702.3208671875001,279.3579028861791L703.0747539062501,266.6635731194231L705.3364140625,269.10751348451157L706.09030078125,275.01569505451636L706.8441875,276.42952269719507L709.859734375,267.01970973454013L710.61362109375,272.2881246574124L712.12139453125,279.6822267980442L712.87528125,272.58815967527846L713.6291679687499,270.42687727423845L714.3830546875,276.0218720384305L715.13694140625,261.1549714593807L715.890828125,261.8084042654168L717.24782421875,241.67877758986285L718.0017109375,245.57499629913755L718.7555976562501,259.29069171677247L719.509484375,269.32057511327434L721.0172578125,264.68981987652984L721.77114453125,270.0258039778521L722.52503125,268.7257368948085L723.27891796875,264.02239899812776L724.0328046875,269.4718756073079L724.78669140625,260.6860267299927L725.540578125,272.4153342658355L726.29446484375,278.40519940758725L728.556125,272.07944128020307L729.3100117187499,259.82407960485216L730.81778515625,259.2944628295818L731.571671875,269.47822340451296L732.32555859375,274.81712673485987L733.0794453125001,272.09037972713367L733.83333203125,262.89716508820567L734.58721875,268.58978557645264L736.0949921875,278.80009320966934L736.84887890625,272.76851265895385L737.6027656250001,277.01671953930486L738.35665234375,271.45774080618213L739.1105390625,272.09222075452584L739.86442578125,276.3982302607351L740.6183125,278.8818628034211L741.37219921875,284.33172235170446L743.633859375,263.0209154857747L744.38774609375,271.73075384784374L745.89551953125,284.2650396504986L746.64940625,270.17098824692977L747.40329296875,272.8829900097091L748.1571796874999,274.5087903948122L748.9110664062499,275.3676210597888L749.664953125,284.13581700972543L751.1727265625,274.0806515685365L751.9266132812501,275.22639419432426L752.6805,276.79931938433464L753.43438671875,261.4183987732331L754.1882734375,267.4527897564839L754.94216015625,260.8823100829584L755.696046875,272.1475619439567L756.4499335937501,269.2256831168063L757.2038203125,242.43352614032366L757.95770703125,264.9197094432722L758.71159375,246.29807414169161L759.46548046875,263.8625427464377L760.97325390625,270.52647329764704L762.48102734375,270.83932604994516L763.2349140625,275.75439789174857L763.98880078125,273.44205714923106L764.7426875,276.9441786757612L765.49657421875,262.0266404131525L766.2504609375,264.9777187597544L767.7582343749999,253.62447262862995L768.51212109375,244.6434486831237L769.2660078125,255.78577004820164L770.01989453125,260.190103016975L770.7737812500001,255.14318346525113L771.52766796875,268.66833935489217L773.03544140625,277.0575320953618L774.54321484375,282.27897360764604L775.2971015625001,290.8615821005445L776.804875,293.006809877909L777.55876171875,277.75145683073765L778.3126484375,262.9826013444248L780.57430859375,262.5687756384158L781.3281953125,268.98162499853083L782.08208203125,271.64806605895546L782.83596875,269.04962095928306L783.58985546875,266.76119096678053L785.09762890625,262.57420310640833L785.8515156249999,265.81370612689557L786.6054023437499,268.36416374505495L787.9623984375,264.1768603045187L788.71628515625,257.39243945791543L789.470171875,263.1010884319402L790.22405859375,267.73027689265973L791.7318320312501,262.503111785324L792.48571875,264.1538551053576L793.9934921875,270.0147292689188L794.74737890625,261.51004229883995L795.501265625,266.1014567284644L796.25515234375,279.26276772718734L797.76292578125,270.634003722355L798.5168125,264.3014625628758L799.27069921875,249.46630331652318L800.0245859375,261.793604285404L801.5323593749999,273.44891099636635L803.0401328124999,272.2892565292464L804.5479062500001,260.95603035134013L805.3017929687501,265.7060155326818L806.0556796875001,275.3873726415186L806.80956640625,268.3293717305604L807.563453125,271.94144987250183L810.5790000000001,275.98104737577694L811.33288671875,277.1603001534045L812.0867734375,265.22153912099304L812.84066015625,265.24482871813194L813.594546875,273.98251974576993L815.1023203125,272.5574514347187L815.8562070312499,268.742193688517L816.61009375,266.38079092040283L817.36398046875,270.77720060548495L818.1178671875,271.69243985897975L818.87175390625,265.90088166272574L819.625640625,271.1494947298193L820.3795273437499,279.31376002878926L821.1334140624999,281.74621132654323L821.8873007812499,284.05040929567315L823.3950742187501,266.3035955163713L824.1489609375001,270.9487011134263L824.9028476562501,265.78327356702476L825.656734375,283.815445194866L826.41062109375,292.56191171538234L827.1645078125,258.4767140942555L827.91839453125,251.50277414468093L829.4261679687501,258.4259843720007L830.1800546875,264.9536116195401L830.93394140625,270.1020086398828L831.687828125,269.06385291128504L832.44171484375,278.2688431021904L833.1956015625,267.32633057394276L833.94948828125,255.8141842535973L834.7033749999999,249.74018001907967L835.45726171875,257.31431704390457L838.47280859375,237.78953406908587L839.2266953124999,251.45055132730357L840.7344687499999,265.9246174841767L841.4883554687501,259.9561224047415L842.2422421875001,273.939315111204L842.9961289062501,274.8268723549086L843.7500156250001,271.4226327534251L844.50390234375,253.09111975916903L845.2577890625,263.0777855260741L846.7655625,272.36494556677656L847.5194492187501,268.3329401645053L848.2733359375001,275.79133376859386L849.02722265625,269.35322087315944L850.53499609375,271.73454390490275L851.2888828125,273.0802127603821L852.04276953125,278.1328381897737L852.79665625,259.72535552621616L853.5505429687499,263.6722957354338L854.3044296875,260.5040037342447L855.812203125,262.6373341834738L856.56608984375,249.99882033802237L858.6769726562501,252.86076685082503L859.4308593750001,255.13019850800387L860.18474609375,246.9409659650919L860.9386328125,254.72649320707984L861.69251953125,251.39159025249637L862.44640625,265.80711151942876L863.9541796875001,268.17815716596317L865.461953125,284.07088704221326L867.72361328125,283.2534543340782L868.4775,275.22341380046015L869.23138671875,274.1587919402567L869.9852734374999,283.1542748311514L871.493046875,282.382309151908L872.24693359375,285.58169288300326L873.0008203125,292.267873302828L874.5085937499999,277.5357938355199L875.2624804687499,271.80047417695556L876.0163671874999,276.53292907653145L876.7702539062501,272.16294470888823L878.2780273437501,284.84371817049674L879.0319140625,279.7162014251562L879.78580078125,260.2199830915399L880.5396875,262.3113907150164L881.29357421875,259.6039219518508L882.0474609375,246.55740610145062L882.8013476562501,257.14368361010315L883.555234375,274.4842843960814L884.30912109375,276.2722991193631L885.81689453125,274.20739450545364L886.57078125,271.2076734037814L888.0785546875,269.0988074832948L889.586328125,276.6155569435256L890.34021484375,271.13875104438137L891.84798828125,275.72823929065555L892.601875,265.12333051688427L893.3557617187499,272.4330410867727L894.1096484374999,279.98532538616075L894.8635351562499,274.81783973629894L895.6174218750001,276.51096147767294L897.87908203125,275.6242960876289L898.63296875,259.3694037316841L899.38685546875,264.1207236425863L900.1407421875,264.0518330646945L901.6485156250001,273.1311317320381L902.40240234375,276.87084842861765L903.1562890625,287.6003553635467L903.91017578125,285.87118295617825L904.6640625,274.1250211245379L906.92572265625,269.0182449013606L908.43349609375,270.01944758101706L909.1873828125,269.4023640203526L910.69515625,273.30061775490196L911.44904296875,266.1223811231548L912.9568164062499,268.87689037856217L913.7107031249999,262.7423881516668L914.4645898437501,266.650214772507L915.2184765625001,271.1523339678478L916.72625,273.67891390375195L917.48013671875,266.78602255983077L918.2340234375,275.39107374791206L919.741796875,259.8486804577238L920.4956835937501,248.73967042373917L921.2495703125,266.2684753540328L922.00345703125,260.68348230483014L923.51123046875,275.75962940193347L924.2651171875,274.1760085650192L925.772890625,264.686029483764L927.2806640625,265.3464783998341L928.03455078125,258.10944341296874L930.1454335937499,264.150934804768L930.8993203125001,283.1109850588217L931.6532070312501,278.53654320610997L932.4070937500001,283.472197127913L933.9148671875,288.5690922408942L935.422640625,270.9509360346944L936.17652734375,255.63748037166897L936.9304140625001,244.51137271240995L937.68430078125,261.13163778226567L938.4381875,265.1443062339825L939.19207421875,267.62940575309386L939.9459609375,268.3689588641648L940.69984765625,271.81930649327313L941.453734375,281.04725157186243L942.2076210937499,289.0434065326284L943.71539453125,291.3762016982073L944.46928125,269.4521262826697L945.22316796875,268.6115841631398L945.9770546875,275.9466577125725L948.2387148437499,276.45776578318396L948.9926015624999,282.63488508792904L949.7464882812501,276.06417879657045L950.5003750000001,279.80079125479733L951.2542617187501,270.1401291789209L952.76203515625,256.0869640369919L953.515921875,261.62125009239105L954.26980859375,251.91485211850932L955.0236953125,268.80774545778087L955.7775820312501,239.65277019761695L959.547015625,245.7021891897141L960.30090234375,266.1007752890696L961.0547890624999,268.90037445981307L961.8086757812499,272.60475536896223L962.5625625,260.11929248608146L963.31644921875,268.7259721278209L964.0703359375,278.09848935393063L964.82422265625,288.6674002081612L965.5781093749999,267.9095314664454L966.3319960937499,271.7931440714773L967.0858828124999,281.0446517239207L967.8397695312499,281.79869919132534L968.5936562500001,282.28937593905897L969.3475429687501,274.263502305511L970.1014296875001,272.3462191993397L970.85531640625,278.0104749786976L971.609203125,277.0372760725712L972.36308984375,275.3896430979679L973.1169765625,270.25419725853266L973.87086328125,270.07058899170283L974.6247500000001,267.46953665978174L975.37863671875,267.7519621349788L976.1325234375,268.9488339444413L976.88641015625,269.37095491592714L978.39418359375,270.3941346983302L979.9019570312499,280.08238692737643L980.6558437499999,276.1556844687135L981.40973046875,276.86770771532997L982.1636171875,278.23088944208683L982.91750390625,284.7751466810826L984.4252773437499,268.3141331387278L985.9330507812499,268.76658859594824L986.6869374999999,270.8788340307424L987.4408242187501,276.9661990443887L988.1947109375001,282.0010831277458L989.702484375,280.4640520063306L990.45637109375,250.93041022169467L991.2102578125,249.75448043923092L991.96414453125,269.7178087060163L992.71803125,273.4314488078574L994.97969140625,278.5537897974024L995.733578125,280.19280787620386L997.99523828125,274.71592687443456L998.7491249999999,260.1053969538139L1000.10612109375,264.8735660735538L1002.36778125,269.87865146569493L1003.12166796875,271.62942242883537L1004.6294414062501,269.51745225869354L1005.383328125,264.2476771379617L1006.13721484375,236.45407338949823L1006.8911015625,254.94926194723865L1007.64498828125,263.98726728585996L1008.398875,265.89266191982244L1009.15276171875,271.97342748911024L1009.9066484375,272.61159947531746L1010.66053515625,273.3369978310775L1011.414421875,282.3962831570455L1012.9221953125,287.7420319923119L1013.67608203125,276.664981086518L1014.42996875,283.8143495651236L1015.9377421875,262.0980580801415L1016.69162890625,270.09970902924056L1017.445515625,279.2795418584572L1018.19940234375,284.8950187263656L1018.9532890625,282.484998180052L1019.7071757812499,280.01598577265764L1020.4610625,287.07433662989365L1021.21494921875,272.66059512123496L1022.7227226562501,279.2329912481672L1023.4766093750001,275.36467363646636L1024.9843828125,277.672085805883L1025.73826953125,271.15160237212694L1026.4921562499999,263.95043532148475L1027.2460429687499,267.16633157664603L1027.9999296874998,270.8581887790782L1028.75381640625,261.87376854251164L1029.507703125,274.4439732987273L1030.26158984375,286.6407223132502L1031.0154765625,283.2819745602204L1031.76936328125,282.06992196607973L1032.52325,280.4525385426176L1033.27713671875,273.695887489771L1034.0310234375,265.4094982379216L1034.7849101562501,267.49124607255214L1036.29268359375,252.70207978592055L1037.0465703125,262.01356709369287L1037.80045703125,276.3222425154541L1038.55434375,256.4401001941571L1040.0621171875,264.1231499223719L1040.81600390625,267.79970046930373L1043.83155078125,275.37751604858363L1045.3393242187499,279.2574112718261L1046.0932109374999,274.06337559385764L1047.600984375,276.25843370965714L1048.35487109375,279.65903108989016L1049.1087578125,280.80472966728354L1049.86264453125,269.4319492422123L1050.61653125,272.72940425703507L1052.1243046875,272.2973874961432L1052.87819140625,267.0355192573852L1053.6320781250001,270.3640928711596L1054.3859648437501,267.26118509049047L1055.1398515625,270.76060808287036L1055.89373828125,269.36194358583157L1056.647625,274.9035319536593L1057.40151171875,268.8524405093931L1058.1553984375,283.0020278828232L1058.90928515625,264.4142873899913L1059.663171875,273.59473271722715L1060.41705859375,257.0274861599278L1061.1709453125,264.7401167607576L1061.92483203125,268.00495733416625L1062.67871875,262.84796102200306L1063.43260546875,259.373753369583L1064.1864921874999,262.4596692257807L1065.6942656249998,262.43647431304026L1066.44815234375,259.0674738306359L1067.95592578125,235.28625784084105L1068.7098125,255.31732967337166L1069.46369921875,261.5757952553141L1071.57458203125,265.1549002227911L1072.32846875,252.53015307280936L1073.08235546875,258.03992391588827L1073.8362421875,276.0697329117945L1074.59012890625,261.46752669215107L1075.3440156249999,271.0361590235675L1076.8517890625,270.84251697399543L1078.3595625,272.2844589652383L1079.8673359375,273.73344630378034L1082.12899609375,264.3510879863737L1082.8828828125002,264.641863246963L1083.6367695312501,259.2325553754772L1084.3906562500001,270.35833011397193L1085.14454296875,277.01766778620697L1085.8984296875,261.7149605401059L1087.406203125,270.39030130667476L1088.16008984375,279.43922840874933L1088.9139765625,272.10677103166137L1089.66786328125,266.6962091393773L1090.42175,259.4715230349241L1091.17563671875,261.45798803671994L1091.9295234375,269.19263053760665L1092.68341015625,282.7050033258398L1093.437296875,274.52776825058885L1094.1911835937499,277.40358403742226L1095.69895703125,269.3553709559159L1096.45284375,275.037324521782L1097.20673046875,275.2179601935686L1098.71450390625,265.5435290285476L1099.468390625,264.90194502011747L1100.22227734375,259.4836294769182L1100.9761640625,263.9832987787312L1101.7300507812502,273.95100345732504L1102.4839375000001,279.2836515616857L1103.2378242187501,270.25605108966045L1103.9917109375,267.76110819011484L1104.74559765625,276.13166247871357L1105.499484375,283.95454517075984L1106.25337109375,286.52863335757337L1107.0072578125,269.9675086720008L1107.76114453125,262.14002855394597L1108.51503125,274.2141780639718L1110.0228046875,268.89480540444987L1110.77669140625,260.9889643659837L1111.530578125,272.02072196805716L1112.28446484375,270.60547606443055L1113.0383515624999,270.6201008469401L1113.7922382812499,276.09696974271657L1114.546125,268.31293879121444L1115.30001171875,273.99120952032126L1116.0538984375,267.01747659999967L1117.561671875,281.60567502963704L1118.31555859375,274.6079746708952L1119.82333203125,286.6283220367514L1122.0849921875001,286.3979865628113L1122.83887890625,286.972953326481L1123.592765625,293.057678262059L1125.1005390625,268.3991218892186L1125.85442578125,258.255184020578L1126.6083125,267.9583987241859L1128.1160859375,280.1232738818909L1128.86997265625,272.19719792781814L1129.623859375,269.9090884966721L1130.37774609375,280.8832047877561L1131.1316328125,279.9927321219068L1131.8855195312499,258.87578588318905L1132.6394062499999,241.9782178016812L1133.39329296875,246.6219513607764L1134.1471796875,258.09072497952053L1134.90106640625,271.82700607760273L1136.40883984375,266.49673785239213L1137.1627265625,263.5115067341824L1137.91661328125,272.5990282239056L1138.6705,264.7199133152153L1139.4243867187502,273.80799137700416L1140.1782734375001,277.94107988280734" style="fill: none;" fill="none"></path></g></g></g></g><g opacity="0.2"><g><g><g><path stroke="rgb(255, 112, 67)" stroke-width="2px" d="M163.59341796875,-101.30160835598201L164.3473046875,24.066912461072206L165.10119140625,-45.92320337785145L168.11673828125,-24.010514988430884L169.62451171875,28.363278054233092L170.37839843749998,17.29663559741209L171.88617187499997,66.78130635832036L174.14783203125,74.02277097744604L174.90171875,-8.538487714848372L175.65560546875,42.8039739424629L176.40949218749998,98.32658424281647L177.16337890625002,53.33163960278034L178.67115234375,32.26118553270186L180.93281249999998,94.76860005781054L181.68669921875002,87.99854890682866L183.19447265625,-11.93867365856255L183.948359375,62.672232129744145L184.70224609375,68.86109821338738L185.4561328125,71.04017856770326L186.21001953125003,113.6631713698485L186.96390625,77.22357738869533L188.4716796875,123.7070846022772L189.22556640624998,83.87013862548133L191.4872265625,102.73620744209205L192.24111328125,118.64912681388006L192.995,119.05263838464663L193.74888671875,59.02752411791255L194.5027734375,135.8607216988291L196.76443359375,165.20113782531448L197.5183203125,126.19742273991662L198.27220703125,130.78557212810432L199.02609375,139.77801538844193L199.77998046874998,81.07378425449133L200.53386718750002,71.84035509132912L201.28775390625,39.63898060949788L202.041640625,180.19175757494355L202.79552734375,169.65337056240864L203.5494140625,111.84978317309702L205.05718750000003,14.051639659596333L205.81107421875,85.03917982376049L206.56496093750002,55.1889289154538L207.31884765625,100.32115702224633L208.82662109375,107.83004100673963L209.58050781249997,151.50351315311022L210.33439453125,128.44913241825998L211.08828125,118.91122939171538L212.5960546875,117.751128923414L213.34994140625,173.9300113754081L214.85771484375002,150.35550085268915L215.6116015625,151.1387113066656L216.36548828125,88.841911789562L217.119375,151.67530558045422L217.87326171875,169.48141512035258L218.62714843749998,101.77968726998995L220.134921875,144.6186996448253L220.88880859375,121.51122627221048L222.2458046875,133.8675784330283L222.99969140625,188.5631774802293L224.50746484375003,129.97693137904363L226.769125,197.09895383406962L227.52301171874998,199.5919002071023L228.2768984375,149.1511857786349L229.03078515624998,192.664226369134L229.78467187500002,235.68556442963225L230.53855859375,144.16215813426035L231.2924453125,149.76876074554667L232.04633203125,196.82541514720236L234.30799218750002,154.1343072745949L235.06187890625,165.59667421478247L237.3235390625,174.51682672011003L239.58519921875,228.36948296095113L240.33908593750002,146.51486169653282L241.09297265625,185.36230837101382L241.846859375,180.90109728516214L242.60074609375,130.04405582164014L243.35463281250003,122.05288654166674L244.86240625000002,207.3635012094996L245.61629296875,166.61906487015742L246.37017968749998,240.31427940194095L247.12406640625,141.90466770343482L247.87795312499998,207.06983647548728L249.3857265625,165.33491020596452L250.13961328125,160.28881487276936L252.40127343749998,183.83749383342052L253.15516015625002,191.1875387903835L254.66293359375,142.03215774787324L255.4168203125,201.7798084350569L256.92459375,188.98607526213996L258.4323671875,215.32355975865255L259.18625390625,168.10395334288478L259.94014062499997,220.1392588755116L260.69402734375,191.2042791473546L261.4479140625,186.14474137020963L262.20180078125003,164.02116210173284L263.70957421875,198.81878412568145L264.4634609375,210.74547966383398L265.21734765625,162.02547329850495L265.971234375,204.71085057700319L267.4790078125,155.93282351376757L268.23289453125,193.8175178383078L268.98678125,103.50964955293705L270.4945546875,160.26377330507552L271.24844140625,233.97717651684903L272.002328125,186.46411227035736L273.5101015625,129.16765111072786L274.26398828124996,215.16638849702264L275.77176171875,214.36828100628088L276.5256484375,198.58907131717675L278.033421875,154.8886515849403L278.78730859374997,151.23214381587292L279.5411953125,203.33671179174314L281.04896875000003,208.96407996942955L281.80285546875,152.03387524906015L282.5567421875,150.78469351040468L284.064515625,230.25651618878226L284.81840234375,226.39199537730644L285.5722890625,216.66059388752495L286.32617578125,171.75588416042075L287.83394921875,169.32468274448598L288.58783593749996,225.4524726238368L289.34172265625,186.76808455001031L290.095609375,240.94641283660064L290.84949609375,227.81845561534698L291.6033828125,242.54380027005183L292.96037890625,191.38674276854312L293.714265625,245.09407139356648L294.46815234375003,245.18513391965203L295.97592578125,238.83984268017645L296.7298125,213.3697155780558L298.99147265625004,177.54912607744336L302.00701953125,209.7696108993675L302.76090625,216.82513842997807L304.26867968749997,248.34623370891703L305.02256640625,166.79041841173813L305.776453125,208.67757534315544L307.28422656249995,239.07395688590728L308.03811328125005,218.0438238778817L308.79200000000003,247.9274301041982L309.54588671875,228.4630847546671L310.2997734375,186.59641751859868L312.56143359375,246.18673392944038L313.3153203125,224.40971766904528L314.06920703125,157.17772925112928L314.82309375,172.24368687692498L317.08475390625006,221.9353110846132L317.83864062500004,228.29101645627193L318.59252734375,169.72732908331923L319.3464140625,197.83441351700043L320.10030078125004,236.6628564379311L320.8541875,242.74743699442064L322.3619609375,243.28844520502858L323.11584765624997,245.80816360962177L323.869734375,173.44810226772512L325.37750781249997,217.29798141175084L326.13139453124995,235.7178601520136L326.88528125000005,208.45393169777734L327.63916796875003,159.56387590856426L328.3930546875,198.7514841287796L329.14694140625,238.5480338059632L329.90082812500003,187.6405016702733L331.4086015625,249.74365851881782L332.16248828125,143.0242151272084L333.67026171875,246.4646175853642L334.4241484375,243.2830970685131L335.17803515624996,236.7887037956555L336.68580859375004,229.3178398578561L337.4396953125,191.74148786121182L338.19358203125,213.41833158103483L338.94746875000004,230.03597609273027L339.70135546875,232.27518379661655L340.4552421875,260.04763664518083L341.20912890625,228.93288061528335L341.96301562499997,233.77450534115945L342.71690234375,254.1923488208226L343.4707890625,253.06440613937696L344.97856249999995,190.61663618949908L347.24022265625,221.40925633894014L347.994109375,267.3902080045747L348.74799609375003,267.2119137981374L349.5018828125,226.7564837339201L351.00965625,189.1236345999475L352.5174296875,191.50169321974474L354.02520312499996,238.66725398866194L355.53297656250004,238.66186823336673L357.04075,201.1309973413923L357.79463671875004,136.27558160147495L358.5485234375,218.47339899319093L359.30241015625,185.03061105071433L360.056296875,228.2335036118914L361.5640703125,256.6491310069604L362.31795703125,247.4814657405285L363.674953125,222.96192131311233L364.42883984375,248.2938620977636L365.1827265625,230.63321810920857L365.93661328125,251.44836606098605L366.6905,260.180173875897L367.44438671874997,231.0273187152509L371.21382031250005,244.9142724359408L372.72159375,266.34989200066775L373.47548046875,273.9002538246901L374.98325390625,225.9651162745431L375.737140625,268.9994014650583L376.49102734375,204.82335580752365L377.24491406249996,242.7187965634678L377.99880078125,162.98155458484376L378.7526875,285.23345354984383L379.50657421874996,244.81576139147262L380.26046093749994,258.1056799989726L381.01434765625004,235.7142487491614L381.768234375,255.59947927588863L382.52212109375,252.88788001558612L384.78378125,207.02858121373825L385.53766796875,262.5103751381061L387.04544140625,171.53319352412865L389.30710156249995,262.1282435738083L390.06098828125005,271.7333212013223L391.56876171875,216.45958420793926L392.3226484375,180.7491299547255L393.07653515625003,235.6072421302753L393.830421875,187.96505142242782L394.58430859375,235.45038435847633L395.3381953125,211.7962850374835L396.09208203124996,251.18556753572608L396.84596875,241.04633458530796L397.59985546875,226.3466835571453L398.35374218749996,164.37286007324502L399.10762890624994,235.7116154345817L399.86151562500004,232.30268939438145L400.61540234375,242.2097016176475L402.12317578125,246.95187482956266L402.8770625,250.29377047411566L404.3848359375,220.21506071662796L405.892609375,290.7019325416269L407.40038281249997,248.88186870382302L408.90815625000005,267.37826404201667L409.66204296875003,265.31196478927245L410.4159296875,255.86825918712253L411.16981640625,261.4525350526508L411.92370312500003,191.2149754203856L412.67758984375,251.97933005741132L413.4314765625,233.00872492178212L414.18536328125,269.690847175728L414.93924999999996,249.72124399590706L415.69313671875,196.06720864214003L416.4470234375,250.89028519418622L417.20091015624996,223.24116551490235L417.95479687499994,277.27724465581457L418.70868359375004,228.92943222714322L419.4625703125,168.30498810165696L420.21645703125,227.3699143652671L421.72423046875,240.24965660819518L422.4781171875,269.5416573651933L423.23200390625,249.5714397453038L423.98589062499997,259.9228927716613L424.73977734375,275.77503273503055L425.4936640625,279.6219291482121L426.24755078124997,205.00805147630828L427.00143749999995,236.70276369340718L427.75532421875005,212.40737703469182L428.50921093750003,254.74443576205522L429.26309765625,190.96305499225855L430.016984375,221.0455015485308L430.77087109375003,238.13978226895313L432.27864453125,246.49071247888995L433.03253125,254.94090610888918L435.1434140625,284.3194269243229L436.6511875,259.48246463840565L437.40507421875,264.1963297185887L438.1589609375,279.28391187292124L438.91284765625,248.76681793587548L439.666734375,231.86158412309098L441.1745078125,294.117720874226L441.92839453125004,272.17083701404874L443.43616796875,240.74462570223426L444.19005468750004,265.69241604807655L444.94394140625,292.52852493005673L445.697828125,278.24865245998706L446.45171484375,244.9975102558466L447.95948828125,254.47412602044642L448.713375,233.04913376098764L449.46726171874997,256.7336227861898L450.2211484375,224.2579321627106L452.48280859375,269.20691292373726L453.99058203125,238.96026666382593L454.74446875,214.37003654933403L456.2522421875,252.10610534503525L457.00612890625,188.13755860658628L457.760015625,224.88348231092095L459.26778906249996,268.03173986436536L460.02167578125,195.5097359456122L461.52944921875,239.36521401801812L463.03722265625004,258.33623296022415L466.80665625,263.99891263246536L467.56054296875,266.444377835707L469.822203125,238.9480154812336L470.57608984375,274.7734295903439L471.3299765625,262.4104283102123L472.08386328125,233.16399016524L472.83775,259.32141237266893L473.59163671875,246.55559860409372L475.09941015625,248.2523811233363L476.60718359375,240.1798863114257L478.11495703124996,272.2910384199183L479.62273046875004,229.5620797851256L481.88439062500004,258.74916176551153L482.63827734375,228.78584761478538L484.14605078125,245.0398125736309L484.8999375,246.15154783081795L485.65382421875,218.38764071504454L486.4077109375,236.48964076675475L487.16159765624997,268.4481985651489L488.66937109375,256.65206527177776L489.4232578125,236.3017349621015L490.17714453125,252.34791886101345L490.93103125,214.6783475282469L491.68491796875,259.2771852273228L492.4388046875,254.3503476956061L493.19269140625,233.5570186360606L493.946578125,240.87463620491326L494.70046484375,264.01448053746884L496.20823828125,274.55784890341704L496.96212499999996,264.98234277165363L498.46989843750004,270.8240815655195L499.22378515625,262.42647271975875L499.977671875,232.75445331992316L500.73155859375004,241.51049389876425L501.4854453125,255.4492549489119L502.23933203125,215.11365950746196L502.99321875,262.89492684389865L503.74710546875,294.8937492761761L505.10410156250003,248.22765304547335L505.85798828125,259.6044247222266L506.611875,262.50612421599885L507.36576171875004,237.65194193366915L508.1196484375,251.95613180992325L508.87353515625,258.7566228234874L509.627421875,263.20584605820477L510.38130859374996,228.40584151154118L511.1351953125,260.80855797217896L511.88908203125,181.989997943065L514.1507421875,206.96733784036977L514.90462890625,215.67239870290672L517.92017578125,247.75349340641074L520.1818359375001,282.52883257317757L520.93572265625,257.9431229820475L521.689609375,243.83252561597953L522.44349609375,275.98610230329047L523.1973828125,222.53933702103262L524.70515625,287.61420504728864L525.4590429687499,269.65617520042827L526.2129296875,274.2150697175946L528.47458984375,264.97915144517486L529.2284765625,278.9537098991152L530.73625,288.2933431471964L533.751796875,279.10532612094124L534.50568359375,270.45492221042514L535.2595703124999,271.3103669912421L536.01345703125,268.44047417571505L536.76734375,247.1431600545932L537.52123046875,288.5888073128382L538.2751171875,277.9951175592307L539.0290039062501,240.48848570098303L539.782890625,226.85703873208593L540.53677734375,262.0564105139513L542.04455078125,265.9267246175025L542.7984375,216.979663837435L543.55232421875,291.81078055747116L544.3062109374999,211.0298776384443L545.06009765625,293.61942878797913L545.813984375,221.6852778652683L546.56787109375,242.293585226605L548.8295312500001,275.79357565852945L549.58341796875,270.7418939365473L550.3373046875,283.7226739519808L554.860625,277.7459871905989L556.3683984375,249.90516847970764L557.12228515625,250.15650581674916L557.8761718750001,268.6397032330611L558.63005859375,237.57984554235424L559.3839453125,241.7498684638579L560.13783203125,248.85011218395084L560.89171875,260.369678478688L561.64560546875,230.2649177162509L562.3994921875,269.79083789219817L563.1533789062499,221.47269414112503L563.907265625,262.4915720180475L564.66115234375,240.7971665978964L565.4150390625,194.79870339030666L566.16892578125,250.35127704869956L566.9228125,280.204973210248L567.6766992187501,243.4797178904659L568.4305859375,260.30096777754704L569.938359375,246.63398360141687L570.69224609375,257.40721838588695L571.4461328125,247.36939939577132L572.9539062499999,222.04920820998294L574.4616796875,233.36560801509768L576.5725625,268.31568014382253L577.32644921875,279.289526475793L578.0803359375,282.96858043350016L579.5881093749999,258.67205580669855L580.34199609375,226.90496505743693L581.0958828125,237.73552459238897L582.60365625,267.3704456056335L583.3575429687501,274.66549504155824L584.1114296875,268.5706100743264L584.86531640625,262.38703569902907L585.619203125,278.42372399096246L586.37308984375,140.88111086588884L587.1269765625,275.11809285005023L587.88086328125,222.1786168121866L589.3886367187499,236.2630440471694L590.1425234375,250.74681970796416L590.89641015625,268.3808797588572L591.650296875,295.0435629314743L592.40418359375,251.53405537136962L593.1580703125001,307.3433427174043L593.91195703125,267.4580158550026L594.66584375,249.85613867015178L595.41973046875,285.3103024469955L596.1736171875,263.84641236931617L596.92750390625,276.94830918092543L597.681390625,221.95605157182686L598.4352773437499,270.8602457524144L599.1891640625,250.0940649122266L600.6969375,262.82677415465673L601.45082421875,256.90829931997825L602.2047109375001,237.46360978284585L603.7124843749999,221.0442726683936L604.46637109375,241.02622734755278L605.2202578125,276.91281899716705L605.97414453125,268.9570615284943L607.4819179687499,282.02817990850394L608.2358046874999,287.6440492791922L608.9896914062499,275.6336833051672L609.7435781249999,276.3814850827413L610.4974648437501,196.1404147874564L611.2513515625001,267.23943193549553L612.0052382812501,251.14610543580991L613.51301171875,266.79983768519014L615.02078515625,258.49897807104776L615.774671875,263.17845331677904L616.5285585937501,285.71753514205506L618.79021875,279.76061391451265L621.8057656249999,230.28968341289354L622.5596523437499,231.11793608577656L623.3135390625,232.95698656008713L624.06742578125,263.84152192795386L624.8213125,269.98125161549876L625.57519921875,229.8022945029661L626.3290859374999,278.1415361196601L627.0829726562499,259.52000818055654L629.3446328125001,250.189384630216L630.0985195312501,252.76183829416652L630.8524062500001,248.99327045013862L631.60629296875,254.756154011935L633.11406640625,252.13519093154798L633.867953125,277.1140418498378L634.62183984375,269.77686878533234L636.12961328125,265.24796270539184L636.8835,274.31588177742174L637.63738671875,278.5807635868633L638.3912734375,274.1052103412471L639.14516015625,230.38300933555834L639.899046875,280.75253649322053L640.6529335937499,284.33895420589084L641.4068203124999,210.28887545530284L642.16070703125,269.9617086594392L642.91459375,228.86280309847956L643.66848046875,260.1714400492076L644.4223671875,265.4626280020124L645.1762539062499,277.04773561569993L646.5332500000001,284.3562870586424L647.28713671875,255.6649861109576L648.0410234375,276.5292735937318L650.30268359375,251.5524196056649L651.0565703125,250.72462462793504L652.56434375,274.9994526235387L653.31823046875,291.9594217608018L654.0721171875,271.29639474947805L654.82600390625,275.66736465260124L655.579890625,252.2568249859448L656.33377734375,250.45736200748277L657.0876640624999,275.6413826154146L657.84155078125,272.14423113209864L658.5954375,275.372514927028L659.34932421875,240.38747300766408L660.1032109375,286.70688396925107L661.6109843749999,288.5559692530494L662.36487109375,277.28156768058295L663.1187578125,270.6586529817432L663.87264453125,197.50808314260627L664.6265312500001,276.29128151879246L666.1343046875,216.50146644935012L666.88819140625,270.6969175505053L667.642078125,259.9647185849026L668.39596484375,277.8550628423691L669.1498515625,263.87891499498596L669.90373828125,290.54055424646606L670.657625,243.10471508492316L671.41151171875,292.8685767543502L672.1653984375,280.4165004736611L672.91928515625,253.5569739013112L673.673171875,243.7544603782839L674.42705859375,229.5816791693547L675.1809453125,284.5685384835649L677.44260546875,269.2473405723327L678.95037890625,282.7862735572271L680.4581523437499,271.06568190841267L682.7198125,242.75464099073517L683.4736992187501,249.3861108270607L684.2275859375001,255.76893306909395L684.98147265625,259.16188993730714L685.735359375,258.79552691150457L686.48924609375,284.5628862619134L687.2431328125,255.76058796979487L687.99701953125,283.3116198158823L688.75090625,278.29991745203733L689.50479296875,248.97497518360615L690.2586796875,306.31017898398983L691.01256640625,278.11827203930756L691.766453125,262.004496597951L694.02811328125,193.01232547738724L694.7819999999999,300.1021398622875L695.53588671875,293.11189188661854L697.04366015625,306.78952531230505L697.797546875,291.4434331735995L699.3053203124999,234.24401279113124L700.05920703125,263.3382829721751L700.81309375,268.2410507546738L701.56698046875,277.9349337814908L702.3208671875001,291.53850523462256L703.0747539062501,247.6220784692892L705.3364140625,272.77342403214425L706.09030078125,283.8779674095235L706.8441875,278.55026416121314L709.859734375,252.9049902905577L710.61362109375,280.1907470417209L712.12139453125,290.7733800089918L712.87528125,261.9470589911299L713.6291679687499,267.1849536726784L714.3830546875,284.4143641847186L715.13694140625,238.854620590806L715.890828125,262.788553474471L717.24782421875,211.48433757653194L718.0017109375,251.41932436304967L718.7555976562501,279.86423484322484L719.509484375,284.36540020802727L721.0172578125,257.74368702141305L721.77114453125,278.02978012983556L722.52503125,266.7756362702431L723.27891796875,256.96739215310663L724.0328046875,277.646090521078L724.78669140625,247.50725341401994L725.540578125,290.0092955695998L726.29446484375,287.3899971202149L728.556125,262.59080408912683L729.3100117187499,241.4410370918257L730.81778515625,258.5000376666763L731.571671875,284.75386426690966L732.32555859375,282.82548173038026L733.0794453125001,268.00025921554436L733.83333203125,249.10734312981367L734.58721875,277.12871630882313L736.0949921875,294.11555465949436L736.84887890625,263.7211418328807L737.6027656250001,283.3890298598313L738.35665234375,263.119272706498L739.1105390625,273.04394067704146L739.86442578125,282.857244520049L740.6183125,282.60731161745L741.37219921875,292.50651167412957L743.633859375,231.05470518688006L744.38774609375,284.79551139094735L745.89551953125,303.0664683544809L746.64940625,249.02991114157652L747.40329296875,276.95099265387813L748.1571796874999,276.94749097246677L748.9110664062499,276.6558670572538L749.664953125,297.2881109346303L751.1727265625,258.99790340675304L751.9266132812501,276.9450081330059L752.6805,279.15870716935024L753.43438671875,238.34701785658086L754.1882734375,276.5043762313601L754.94216015625,251.0265905726701L755.696046875,289.0454397354541L756.4499335937501,264.84286487608085L757.2038203125,202.24529067559968L757.95770703125,298.648984397695L758.71159375,218.36562118932073L759.46548046875,290.20924565355693L760.97325390625,280.52236912446097L762.48102734375,271.3086051783923L763.2349140625,283.1270056544537L763.98880078125,269.9735460354548L764.7426875,282.1973609655563L765.49657421875,239.65033301923955L766.2504609375,269.4043362796573L767.7582343749999,236.59460343194328L768.51212109375,231.17191276486432L769.2660078125,272.4992520958185L770.01989453125,266.79660247013504L770.7737812500001,247.57280413766526L771.52766796875,288.95607318935384L773.03544140625,289.6413212060662L774.54321484375,290.1111358760723L775.2971015625001,303.73549483989234L776.804875,296.2246515439557L777.55876171875,254.86842725998056L778.3126484375,240.82931811495553L780.57430859375,261.9480370794024L781.3281953125,278.60089903870335L782.08208203125,275.6477276495924L782.83596875,265.1519533097744L783.58985546875,263.32854597802674L785.09762890625,256.2937213158501L785.8515156249999,270.6729606576264L786.6054023437499,272.18985017229403L787.9623984375,257.89590514371434L788.71628515625,247.21580818801056L789.470171875,271.66406189297726L790.22405859375,274.674059583739L791.7318320312501,254.66236412432045L792.48571875,266.629970085408L793.9934921875,278.80604051426053L794.74737890625,248.7530118437218L795.501265625,272.98857837290103L796.25515234375,299.0047342252718L797.76292578125,257.6908577151064L798.5168125,254.80265082365702L799.27069921875,227.21356444699424L800.0245859375,280.2845557387253L801.5323593749999,290.9318710628099L803.0401328124999,270.5497748285665L804.5479062500001,243.9561910844807L805.3017929687501,272.83099330469435L806.0556796875001,289.9094083047738L806.80956640625,257.7423703641232L807.563453125,277.359567085414L810.5790000000001,282.0404436306895L811.33288671875,278.9291793198458L812.0867734375,247.31339757237583L812.84066015625,265.2797631138403L813.594546875,287.0890562872269L815.1023203125,270.4198489681419L815.8562070312499,263.01930706921434L816.61009375,262.83868676823164L817.36398046875,277.3718151331081L818.1178671875,273.06529873922204L818.87175390625,257.21354436834474L819.625640625,279.0224143304596L820.3795273437499,291.56015797724416L821.1334140624999,285.3948882731742L821.8873007812499,287.506706249368L823.3950742187501,239.6833748474185L824.1489609375001,277.91635950900877L824.9028476562501,258.03513224742244L825.656734375,310.86370263662786L826.41062109375,305.68161149615685L827.1645078125,207.3489176625652L827.91839453125,241.04186422031904L829.4261679687501,268.81079971298044L830.1800546875,274.74505249084905L830.93394140625,277.8246041703969L831.687828125,267.5066193183884L832.44171484375,292.0763283885483L833.1956015625,250.91256178157138L833.94948828125,238.5459647730791L834.7033749999999,240.62917366730315L835.45726171875,268.675522581142L838.47280859375,208.50235960685782L839.2266953124999,271.94207721463005L840.7344687499999,287.63571671948637L841.4883554687501,251.0033797855888L842.2422421875001,294.9141041708977L842.9961289062501,276.1582082204654L843.7500156250001,266.3162733511999L844.50390234375,225.59385026778494L845.2577890625,278.0577841764316L846.7655625,286.2956856278304L847.5194492187501,262.2849320610985L848.2733359375001,286.97892417472656L849.02722265625,259.6960515300078L850.53499609375,275.30652845251774L851.2888828125,275.0987160436011L852.04276953125,285.71177633386105L852.79665625,232.11413153087986L853.5505429687499,269.5927060492603L854.3044296875,255.75156573246102L855.812203125,265.83732985731746L856.56608984375,231.0410495698452L858.6769726562501,257.15368662002896L859.4308593750001,258.53434599377215L860.18474609375,234.65711715072393L860.9386328125,266.4047840700618L861.69251953125,246.38923582062125L862.44640625,287.43039341982717L863.9541796875001,271.73472563576485L865.461953125,307.9099818565883L867.72361328125,282.02730527187566L868.4775,263.1783530000331L869.23138671875,272.5618591499515L869.9852734374999,296.6474991674934L871.493046875,281.2243606330428L872.24693359375,290.38076847964635L873.0008203125,302.29714393256495L874.5085937499999,255.43767463455777L875.2624804687499,263.1974946891091L876.0163671874999,283.63161142589524L876.7702539062501,265.6079681574234L878.2780273437501,303.8648783629095L879.0319140625,272.0249263071455L879.78580078125,230.97565559111536L880.5396875,265.4485021502312L881.29357421875,255.54271880710232L882.0474609375,226.98763232585043L882.8013476562501,273.02309987308195L883.555234375,300.4951855750488L884.30912109375,278.9543212042855L885.81689453125,271.1100375845895L886.57078125,266.7080917512732L888.0785546875,265.9355086025649L889.586328125,287.8906811338716L890.34021484375,262.923542195665L891.84798828125,282.61247166006694L892.601875,249.21596735622734L893.3557617187499,283.39760694160526L894.1096484374999,291.313751835243L894.8635351562499,267.0666112615062L895.6174218750001,279.0506440897339L897.87908203125,274.29429800256287L898.63296875,234.9870651977669L899.38685546875,271.2477035089396L900.1407421875,263.94849719785685L901.6485156250001,286.7500797330535L902.40240234375,282.48042347348695L903.1562890625,303.6946157659404L903.91017578125,283.2774243451256L904.6640625,256.5057783770774L906.92572265625,261.35808056659465L908.43349609375,271.5212516005018L909.1873828125,268.4767386793558L910.69515625,279.147998356726L911.44904296875,255.35502617553408L912.9568164062499,273.00865426167314L913.7107031249999,253.54063481132368L914.4645898437501,272.5119547037674L915.2184765625001,277.905512760859L916.72625,277.46878380760813L917.48013671875,256.44668554394906L918.2340234375,288.2986505300339L919.741796875,236.5350905224415L920.4956835937501,232.07615537276226L921.2495703125,292.5616827494731L922.00345703125,252.30599273102624L923.51123046875,298.37385004758835L924.2651171875,271.80057730964785L925.772890625,250.4510608618813L927.2806640625,266.3371517739392L928.03455078125,247.25389093267066L930.1454335937499,273.2131718924668L930.8993203125001,311.55106043990236L931.6532070312501,271.6748804270423L932.4070937500001,290.87567801061755L933.9148671875,296.21443491036604L935.422640625,244.5237017253946L936.17652734375,232.66729687713087L936.9304140625001,227.8222112235214L937.68430078125,286.06203538704926L938.4381875,271.1633089115577L939.19207421875,271.357055031761L939.9459609375,269.47828853077124L940.69984765625,276.9948279369356L941.453734375,294.8891691897463L942.2076210937499,301.03763897377735L943.71539453125,294.87539444657574L944.46928125,236.5660131593634L945.22316796875,267.350770983845L945.9770546875,286.94926803672155L948.2387148437499,277.2244278891012L948.9926015624999,291.9005640450466L949.7464882812501,266.20811935953265L950.5003750000001,285.40570994213755L951.2542617187501,255.6491360651063L952.76203515625,235.0072163240984L953.515921875,269.92267917548975L954.26980859375,237.35525515768677L955.0236953125,294.1470854666882L955.7775820312501,195.92030730737108L959.547015625,254.77631767785977L960.30090234375,296.6986544381029L961.0547890624999,273.0997732159283L961.8086757812499,278.16132673268606L962.5625625,241.3910981617602L963.31644921875,281.6359915904302L964.0703359375,292.15726519309516L964.82422265625,304.5207664895071L965.5781093749999,236.77272835387183L966.3319960937499,277.618562979025L967.0858828124999,294.9219132025859L967.8397695312499,282.92977039243226L968.5936562500001,283.0253910606594L969.3475429687501,262.224691855189L970.1014296875001,269.47029454008276L970.85531640625,286.5068586477345L971.609203125,275.5774777133816L972.36308984375,272.91819363606294L973.1169765625,262.55102849937975L973.87086328125,269.7951765914581L974.6247500000001,263.5679581619001L975.37863671875,268.1756003477744L976.1325234375,270.74414165863504L976.88641015625,270.0041363731559L978.39418359375,271.9289043719348L979.9019570312499,294.6147652709458L980.6558437499999,270.2656307807192L981.40973046875,277.93574258525456L982.1636171875,280.2756620322221L982.91750390625,294.5915325395763L984.4252773437499,243.62261282519572L985.9330507812499,269.44527178177873L986.6869374999999,274.0472021829337L987.4408242187501,286.0972465648582L988.1947109375001,289.5534092527814L989.702484375,278.1585053242078L990.45637109375,206.6299475447408L991.2102578125,247.9905857655353L991.96414453125,299.6628011061943L992.71803125,279.0019089606192L994.97969140625,286.23730128171985L995.733578125,282.65133499440606L997.99523828125,266.5006053717807L998.7491249999999,238.18960207288288L1000.10612109375,272.02581975316366L1002.36778125,277.3862795539067L1003.12166796875,274.255578873546L1004.6294414062501,266.3494970034808L1005.383328125,256.3430144568639L1006.13721484375,194.76366776680308L1006.8911015625,282.69204478384927L1007.64498828125,277.54427529379194L1008.398875,268.75075387076606L1009.15276171875,281.09457584304204L1009.9066484375,273.5688574546283L1010.66053515625,274.4250953647175L1011.414421875,295.9852111459976L1012.9221953125,295.7606552452115L1013.67608203125,260.0494047278272L1014.42996875,294.53840228303204L1015.9377421875,229.5236208526684L1016.69162890625,282.1021854528891L1017.445515625,293.04929110228215L1018.19940234375,293.3182340282282L1018.9532890625,278.86996736058165L1019.7071757812499,276.312467161566L1020.4610625,297.66186291574763L1021.21494921875,251.039982858247L1022.7227226562501,289.0915854385655L1023.4766093750001,269.5621972189152L1024.9843828125,281.133204060008L1025.73826953125,261.3708772214928L1026.4921562499999,253.14868474552142L1027.2460429687499,271.99017595938807L1027.9999296874998,276.3959745827264L1028.75381640625,248.39713818766177L1029.507703125,293.29928043305074L1030.26158984375,304.93584583503457L1031.0154765625,278.24385293067564L1031.76936328125,280.2518430748688L1032.52325,278.02646340742444L1033.27713671875,263.560910910501L1034.0310234375,252.97991436014752L1034.7849101562501,270.613867824498L1036.29268359375,230.51833035597312L1037.0465703125,275.98079805535133L1037.80045703125,297.7852556480959L1038.55434375,226.6168867122116L1040.0621171875,275.6477245146941L1040.81600390625,273.31452628970146L1043.83155078125,286.7442394175034L1045.3393242187499,285.0772541066898L1046.0932109374999,266.27232207690497L1047.600984375,279.5510208833564L1048.35487109375,284.7599271602396L1049.1087578125,282.52327753337363L1049.86264453125,252.37277860460537L1050.61653125,277.6755867792692L1052.1243046875,271.6493623548054L1052.87819140625,259.1427168992481L1053.6320781250001,275.3569532918211L1054.3859648437501,262.60682341948683L1055.1398515625,276.00974257144014L1055.89373828125,267.2639468402735L1056.647625,283.21591450540086L1057.40151171875,259.77580334299375L1058.1553984375,304.2264089429684L1058.90928515625,236.5326766507434L1059.663171875,287.3654007080809L1060.41705859375,232.17661632397878L1061.1709453125,276.30906266200225L1061.92483203125,272.90221819427927L1062.67871875,255.11246655375828L1063.43260546875,254.16244189095283L1064.1864921874999,267.0885430100773L1065.6942656249998,262.4016819439296L1066.44815234375,254.0139731070293L1067.95592578125,199.61443385614882L1068.7098125,285.3639374221675L1069.46369921875,270.9634936282278L1071.57458203125,270.5235576740067L1072.32846875,233.59303234783667L1073.08235546875,266.3045801805066L1073.8362421875,303.114446405654L1074.59012890625,239.56421736268592L1075.3440156249999,285.38910752069205L1076.8517890625,270.55205389963726L1078.3595625,274.4473719521027L1079.8673359375,275.9069273115934L1082.12899609375,250.27755051026386L1082.8828828125002,265.0780261378469L1083.6367695312501,251.1185935682484L1084.3906562500001,287.04699222171416L1085.14454296875,287.00667429455956L1085.8984296875,238.76089967095427L1087.406203125,283.403312456528L1088.16008984375,293.0126190618612L1088.9139765625,261.1080849660294L1089.66786328125,258.58036630095114L1090.42175,248.63449387824429L1091.17563671875,264.4376855394138L1091.9295234375,280.79459428893665L1092.68341015625,302.9735625081895L1093.437296875,262.2619156377124L1094.1911835937499,281.7173077176724L1095.69895703125,257.28305133365626L1096.45284375,283.5602548705813L1097.20673046875,275.4889137012485L1098.71450390625,251.03188228101604L1099.468390625,263.9395690074723L1100.22227734375,251.35615616211933L1100.9761640625,270.73280273145065L1101.7300507812502,288.90256047521586L1102.4839375000001,287.2826237182266L1103.2378242187501,256.71465038162256L1103.9917109375,264.0186938407964L1104.74559765625,288.6874939116117L1105.499484375,295.6888692088292L1106.25337109375,290.38976563779374L1107.0072578125,245.125821643642L1107.76114453125,250.3988083768636L1108.51503125,292.3254023290106L1110.0228046875,260.91574641516695L1110.77669140625,249.13020280828434L1111.530578125,288.5683583711673L1112.28446484375,268.48260720899066L1113.0383515624999,270.6420380207045L1113.7922382812499,284.3122730863813L1114.546125,256.63689236396124L1115.30001171875,282.50861561398153L1116.0538984375,256.55687721951733L1117.561671875,303.48797267409304L1118.31555859375,264.1114241327824L1119.82333203125,304.65884308553564L1122.0849921875001,286.0524833519012L1122.83887890625,287.83540347198556L1123.592765625,302.1847656654261L1125.1005390625,231.41128732995796L1125.85442578125,243.03927721761698L1126.6083125,282.51322077959776L1128.1160859375,298.37058661844844L1128.86997265625,260.3080839967089L1129.623859375,266.47692434995304L1130.37774609375,297.34437922438207L1131.1316328125,278.65702312313283L1131.8855195312499,227.2003665251125L1132.6394062499999,216.63186567941946L1133.39329296875,253.58755169941912L1134.1471796875,275.2938854076367L1134.90106640625,292.43142772472595L1136.40883984375,258.50133551457634L1137.1627265625,259.0336600568678L1137.91661328125,286.23031045849035L1138.6705,252.9012409521799L1139.4243867187502,287.4401084696874L1140.1782734375001,284.1407126415122" style="fill: none;" fill="none"></path></g></g></g></g></g></g><g transform="translate(74, 377)" clip-path="url(#clip_1)"><clipPath id="clip_1"><rect width="1206" height="23"></rect></clipPath><g><g><line x1="0" y1="0" x2="0" y2="5" style="visibility: inherit;" fill="rgb(0, 0, 0)" stroke="rgb(204, 204, 204)" stroke-width="1px"></line><line x1="150.77734375" y1="0" x2="150.77734375" y2="5" style="visibility: inherit;" fill="rgb(0, 0, 0)" stroke="rgb(204, 204, 204)" stroke-width="1px"></line><line x1="301.5546875" y1="0" x2="301.5546875" y2="5" style="visibility: inherit;" fill="rgb(0, 0, 0)" stroke="rgb(204, 204, 204)" stroke-width="1px"></line><line x1="452.33203125" y1="0" x2="452.33203125" y2="5" style="visibility: inherit;" fill="rgb(0, 0, 0)" stroke="rgb(204, 204, 204)" stroke-width="1px"></line><line x1="603.109375" y1="0" x2="603.109375" y2="5" style="visibility: inherit;" fill="rgb(0, 0, 0)" stroke="rgb(204, 204, 204)" stroke-width="1px"></line><line x1="753.88671875" y1="0" x2="753.88671875" y2="5" style="visibility: inherit;" fill="rgb(0, 0, 0)" stroke="rgb(204, 204, 204)" stroke-width="1px"></line><line x1="904.6640625" y1="0" x2="904.6640625" y2="5" style="visibility: inherit;" fill="rgb(0, 0, 0)" stroke="rgb(204, 204, 204)" stroke-width="1px"></line><line x1="1055.44140625" y1="0" x2="1055.44140625" y2="5" style="visibility: inherit;" fill="rgb(0, 0, 0)" stroke="rgb(204, 204, 204)" stroke-width="1px"></line><line x1="1206.21875" y1="0" x2="1206.21875" y2="5" style="visibility: inherit;" fill="rgb(0, 0, 0)" stroke="rgb(204, 204, 204)" stroke-width="1px"></line></g><g transform="translate(0, 8)"><text x="0" y="0" dx="0em" dy="0.95em" style="text-anchor: middle; visibility: hidden; font-family: &quot;Helvetica Neue&quot;, sans-serif; font-size: 12px; font-weight: 200;" fill="rgb(50, 49, 63)" stroke="none" stroke-width="1px">-2k</text><text x="150.77734375" y="0" dx="0em" dy="0.95em" style="text-anchor: middle; visibility: inherit; font-family: &quot;Helvetica Neue&quot;, sans-serif; font-size: 12px; font-weight: 200;" fill="rgb(50, 49, 63)" stroke="none" stroke-width="1px">0</text><text x="301.5546875" y="0" dx="0em" dy="0.95em" style="text-anchor: middle; visibility: inherit; font-family: &quot;Helvetica Neue&quot;, sans-serif; font-size: 12px; font-weight: 200;" fill="rgb(50, 49, 63)" stroke="none" stroke-width="1px">2k</text><text x="452.33203125" y="0" dx="0em" dy="0.95em" style="text-anchor: middle; visibility: inherit; font-family: &quot;Helvetica Neue&quot;, sans-serif; font-size: 12px; font-weight: 200;" fill="rgb(50, 49, 63)" stroke="none" stroke-width="1px">4k</text><text x="603.109375" y="0" dx="0em" dy="0.95em" style="text-anchor: middle; visibility: inherit; font-family: &quot;Helvetica Neue&quot;, sans-serif; font-size: 12px; font-weight: 200;" fill="rgb(50, 49, 63)" stroke="none" stroke-width="1px">6k</text><text x="753.88671875" y="0" dx="0em" dy="0.95em" style="text-anchor: middle; visibility: inherit; font-family: &quot;Helvetica Neue&quot;, sans-serif; font-size: 12px; font-weight: 200;" fill="rgb(50, 49, 63)" stroke="none" stroke-width="1px">8k</text><text x="904.6640625" y="0" dx="0em" dy="0.95em" style="text-anchor: middle; visibility: inherit; font-family: &quot;Helvetica Neue&quot;, sans-serif; font-size: 12px; font-weight: 200;" fill="rgb(50, 49, 63)" stroke="none" stroke-width="1px">10k</text><text x="1055.44140625" y="0" dx="0em" dy="0.95em" style="text-anchor: middle; visibility: inherit; font-family: &quot;Helvetica Neue&quot;, sans-serif; font-size: 12px; font-weight: 200;" fill="rgb(50, 49, 63)" stroke="none" stroke-width="1px">12k</text><text x="1206.21875" y="0" dx="0em" dy="0.95em" style="text-anchor: middle; visibility: hidden; font-family: &quot;Helvetica Neue&quot;, sans-serif; font-size: 12px; font-weight: 200;" fill="rgb(50, 49, 63)" stroke="none" stroke-width="1px">14k</text></g><line x1="0" y1="0" x2="1206.21875" y2="0" fill="rgb(0, 0, 0)" stroke="rgb(204, 204, 204)" stroke-width="1px"></line></g></g></g></g></svg>